<?xml version="1.0" encoding="UTF-8"?>
<!DOCTYPE svg PUBLIC "-//W3C//DTD SVG 1.1//EN" "http://www.w3.org/Graphics/SVG/1.1/DTD/svg11.dtd">
<svg version="1.2" xmlns="http://www.w3.org/2000/svg" xmlns:xlink="http://www.w3.org/1999/xlink" x="0" y="0" width="897" height="1392" viewBox="0 0 897 1392">
<style type="text/css"><![CDATA[
text { font:12px Dialog; }
]]></style>
<rect x="-867" y="-564" width="2249" height="2441" style="fill:rgb(243,244,249);stroke:none" />
<rect x="-867" y="-564" width="2249" height="2441" style="fill:rgb(243,244,249);stroke:none" />
<clipPath id="clip1"><path d="M14,14 L883,14 L883,1378 L14,1378 L14,14 Z" /></clipPath>
<path d="M147.65625,79 L147.7070313,89" style="fill:none;stroke:rgb(128,128,128)" clip-path="url(#clip1)" />
<clipPath id="clip2"><path d="M14,14 L883,14 L883,1378 L14,1378 L14,14 Z" /></clipPath>
<path d="M147.7070313,89 L147.7070313,177 L169,177" style="fill:none;stroke:rgb(128,128,128)" clip-path="url(#clip2)" />
<clipPath id="clip3"><path d="M14,14 L883,14 L883,1378 L14,1378 L14,14 Z" /></clipPath>
<path d="M147.7070313,89 L147.7070313,344 L169,344" style="fill:none;stroke:rgb(128,128,128)" clip-path="url(#clip3)" />
<clipPath id="clip4"><path d="M14,14 L883,14 L883,1378 L14,1378 L14,14 Z" /></clipPath>
<path d="M147.7070313,89 L147.7070313,502 L169,502" style="fill:none;stroke:rgb(128,128,128)" clip-path="url(#clip4)" />
<clipPath id="clip5"><path d="M14,14 L883,14 L883,1378 L14,1378 L14,14 Z" /></clipPath>
<path d="M147.7070313,89 L147.7070313,659 L169,659" style="fill:none;stroke:rgb(128,128,128)" clip-path="url(#clip5)" />
<clipPath id="clip6"><path d="M14,14 L883,14 L883,1378 L14,1378 L14,14 Z" /></clipPath>
<path d="M147.7070313,89 L147.7070313,876 L169,876" style="fill:none;stroke:rgb(128,128,128)" clip-path="url(#clip6)" />
<clipPath id="clip7"><path d="M14,14 L883,14 L883,1378 L14,1378 L14,14 Z" /></clipPath>
<path d="M147.7070313,89 L147.7070313,1133 L169,1133" style="fill:none;stroke:rgb(128,128,128)" clip-path="url(#clip7)" />
<clipPath id="clip8"><path d="M14,14 L883,14 L883,1378 L14,1378 L14,14 Z" /></clipPath>
<path d="M147.7070313,89 L147.7070313,1325 L169,1325" style="fill:none;stroke:rgb(128,128,128)" clip-path="url(#clip8)" />
<clipPath id="clip9"><path d="M14,14 L282,14 L282,82 L14,82 L14,14 Z" /></clipPath>
<path d="M16,16 L279,16 L279,79 L16,79 Z M16,16" style="fill:rgb(151,203,255);stroke:none" clip-path="url(#clip9)" />
<clipPath id="clip10"><path d="M14,14 L282,14 L282,82 L14,82 L14,14 Z" /></clipPath>
<path d="M16,16 L279,16 L279,79 L16,79 Z M16,16" style="fill:none;stroke:rgb(128,128,128)" clip-path="url(#clip10)" />
<text x="40" y="48" style="font:18px Dialog">JavaScript函数基础</text>
<clipPath id="clip11"><path d="M167,111 L689,111 L689,244 L167,244 L167,111 Z" /></clipPath>
<path d="M252,177 L265,177" style="fill:none;stroke:rgb(128,128,128)" clip-path="url(#clip11)" />
<clipPath id="clip12"><path d="M167,111 L689,111 L689,244 L167,244 L167,111 Z" /></clipPath>
<path d="M265,177 L265,163 L274,163" style="fill:none;stroke:rgb(128,128,128)" clip-path="url(#clip12)" />
<clipPath id="clip13"><path d="M167,111 L689,111 L689,244 L167,244 L167,111 Z" /></clipPath>
<path d="M265,177 L265,216 L274,216" style="fill:none;stroke:rgb(128,128,128)" clip-path="url(#clip13)" />
<clipPath id="clip14"><path d="M167,111 L689,111 L689,244 L167,244 L167,111 Z" /></clipPath>
<path d="M265,177 L265,242 L274,242" style="fill:none;stroke:rgb(128,128,128)" clip-path="url(#clip14)" />
<clipPath id="clip15"><path d="M167,156 L255,156 L255,199 L167,199 L167,156 Z" /></clipPath>
<path d="M169,158 L252,158 L252,196 L169,196 Z M169,158" style="fill:rgb(158,176,206);stroke:none" clip-path="url(#clip15)" />
<clipPath id="clip16"><path d="M167,156 L255,156 L255,199 L167,199 L167,156 Z" /></clipPath>
<path d="M169,158 L252,158 L252,196 L169,196 Z M169,158" style="fill:none;stroke:rgb(128,128,128)" clip-path="url(#clip16)" />
<text x="176" y="177" style="font:13px Dialog">定义方法</text>
<clipPath id="clip17"><path d="M253,171 L266,171 L266,184 L253,184 L253,171 Z" /></clipPath>
<path d="M263.5,177 C263.5,174.515625 261.484375,172.5 259,172.5 C256.515625,172.5 254.5,174.515625 254.5,177 C254.5,179.484375 256.515625,181.5 259,181.5 C261.484375,181.5 263.5,179.484375 263.5,177 Z M263.5,177" style="fill:rgb(210,230,255);stroke:none" clip-path="url(#clip17)" />
<clipPath id="clip18"><path d="M253,171 L266,171 L266,184 L253,184 L253,171 Z" /></clipPath>
<path d="M263.5,177 C263.5,174.515625 261.484375,172.5 259,172.5 C256.515625,172.5 254.5,174.515625 254.5,177 C254.5,179.484375 256.515625,181.5 259,181.5 C261.484375,181.5 263.5,179.484375 263.5,177 Z M263.5,177" style="fill:none;stroke:rgb(180,200,240)" clip-path="url(#clip18)" />
<clipPath id="clip19"><path d="M253,171 L266,171 L266,184 L253,184 L253,171 Z" /></clipPath>
<path d="M257,177 L261,177" style="fill:none;stroke:rgb(150,160,200)" clip-path="url(#clip19)" />
<clipPath id="clip20"><path d="M272,111 L541,111 L541,192 L272,192 L272,111 Z" /></clipPath>
<path d="M337,163 L350,163" style="fill:none;stroke:rgb(128,128,128)" clip-path="url(#clip20)" />
<clipPath id="clip21"><path d="M272,111 L541,111 L541,192 L272,192 L272,111 Z" /></clipPath>
<path d="M350,163 C352,181 355,190 359,190" style="fill:none;stroke:rgb(128,128,128)" clip-path="url(#clip21)" />
<clipPath id="clip22"><path d="M272,138 L340,138 L340,165 L272,165 L272,138 Z" /></clipPath>
<path d="M274,163 L337,163" style="fill:none;stroke:rgb(128,128,128)" clip-path="url(#clip22)" />
<text x="279" y="151" style="font:10px Dialog">静态方法</text>
<clipPath id="clip23"><path d="M338,145 L351,145 L351,158 L338,158 L338,145 Z" /></clipPath>
<path d="M348.5,151 C348.5,148.515625 346.484375,146.5 344,146.5 C341.515625,146.5 339.5,148.515625 339.5,151 C339.5,153.484375 341.515625,155.5 344,155.5 C346.484375,155.5 348.5,153.484375 348.5,151 Z M348.5,151" style="fill:rgb(210,230,255);stroke:none" clip-path="url(#clip23)" />
<clipPath id="clip24"><path d="M338,145 L351,145 L351,158 L338,158 L338,145 Z" /></clipPath>
<path d="M348.5,151 C348.5,148.515625 346.484375,146.5 344,146.5 C341.515625,146.5 339.5,148.515625 339.5,151 C339.5,153.484375 341.515625,155.5 344,155.5 C346.484375,155.5 348.5,153.484375 348.5,151 Z M348.5,151" style="fill:none;stroke:rgb(180,200,240)" clip-path="url(#clip24)" />
<clipPath id="clip25"><path d="M338,145 L351,145 L351,158 L338,158 L338,145 Z" /></clipPath>
<path d="M342,151 L346,151" style="fill:none;stroke:rgb(150,160,200)" clip-path="url(#clip25)" />
<clipPath id="clip26"><path d="M357,111 L541,111 L541,192 L357,192 L357,111 Z" /></clipPath>
<path d="M359,190 L538,190" style="fill:none;stroke:rgb(128,128,128)" clip-path="url(#clip26)" />
<text x="364" y="124" style="font:10px Dialog">function 函数名 ([虚参列表]){</text>
<text x="364" y="142" style="font:10px Dialog">	函数体;</text>
<text x="364" y="160" style="font:10px Dialog">	[return [函数返回值];]</text>
<text x="364" y="178" style="font:10px Dialog">}</text>
<clipPath id="clip27"><path d="M272,191 L689,191 L689,218 L272,218 L272,191 Z" /></clipPath>
<path d="M363,216 L376,216" style="fill:none;stroke:rgb(128,128,128)" clip-path="url(#clip27)" />
<clipPath id="clip28"><path d="M272,191 L689,191 L689,218 L272,218 L272,191 Z" /></clipPath>
<path d="M376,216 C378,216 381,216 385,216" style="fill:none;stroke:rgb(128,128,128)" clip-path="url(#clip28)" />
<clipPath id="clip29"><path d="M272,191 L366,191 L366,218 L272,218 L272,191 Z" /></clipPath>
<path d="M274,216 L363,216" style="fill:none;stroke:rgb(128,128,128)" clip-path="url(#clip29)" />
<text x="279" y="204" style="font:10px Dialog">动态匿名方法</text>
<clipPath id="clip30"><path d="M364,198 L377,198 L377,211 L364,211 L364,198 Z" /></clipPath>
<path d="M374.5,204 C374.5,201.515625 372.484375,199.5 370,199.5 C367.515625,199.5 365.5,201.515625 365.5,204 C365.5,206.484375 367.515625,208.5 370,208.5 C372.484375,208.5 374.5,206.484375 374.5,204 Z M374.5,204" style="fill:rgb(210,230,255);stroke:none" clip-path="url(#clip30)" />
<clipPath id="clip31"><path d="M364,198 L377,198 L377,211 L364,211 L364,198 Z" /></clipPath>
<path d="M374.5,204 C374.5,201.515625 372.484375,199.5 370,199.5 C367.515625,199.5 365.5,201.515625 365.5,204 C365.5,206.484375 367.515625,208.5 370,208.5 C372.484375,208.5 374.5,206.484375 374.5,204 Z M374.5,204" style="fill:none;stroke:rgb(180,200,240)" clip-path="url(#clip31)" />
<clipPath id="clip32"><path d="M364,198 L377,198 L377,211 L364,211 L364,198 Z" /></clipPath>
<path d="M368,204 L372,204" style="fill:none;stroke:rgb(150,160,200)" clip-path="url(#clip32)" />
<clipPath id="clip33"><path d="M383,191 L689,191 L689,218 L383,218 L383,191 Z" /></clipPath>
<path d="M385,216 L686,216" style="fill:none;stroke:rgb(128,128,128)" clip-path="url(#clip33)" />
<text x="390" y="204" style="font:10px Dialog">var 函数名 = new Function (["虚参列表"], "函数体")</text>
<clipPath id="clip34"><path d="M272,217 L615,217 L615,244 L272,244 L272,217 Z" /></clipPath>
<path d="M350,242 L363,242" style="fill:none;stroke:rgb(128,128,128)" clip-path="url(#clip34)" />
<clipPath id="clip35"><path d="M272,217 L615,217 L615,244 L272,244 L272,217 Z" /></clipPath>
<path d="M363,242 C365,242 368,242 372,242" style="fill:none;stroke:rgb(128,128,128)" clip-path="url(#clip35)" />
<clipPath id="clip36"><path d="M272,217 L353,217 L353,244 L272,244 L272,217 Z" /></clipPath>
<path d="M274,242 L350,242" style="fill:none;stroke:rgb(128,128,128)" clip-path="url(#clip36)" />
<text x="279" y="230" style="font:10px Dialog">直接量方法</text>
<clipPath id="clip37"><path d="M351,224 L364,224 L364,237 L351,237 L351,224 Z" /></clipPath>
<path d="M361.5,230 C361.5,227.515625 359.484375,225.5 357,225.5 C354.515625,225.5 352.5,227.515625 352.5,230 C352.5,232.484375 354.515625,234.5 357,234.5 C359.484375,234.5 361.5,232.484375 361.5,230 Z M361.5,230" style="fill:rgb(210,230,255);stroke:none" clip-path="url(#clip37)" />
<clipPath id="clip38"><path d="M351,224 L364,224 L364,237 L351,237 L351,224 Z" /></clipPath>
<path d="M361.5,230 C361.5,227.515625 359.484375,225.5 357,225.5 C354.515625,225.5 352.5,227.515625 352.5,230 C352.5,232.484375 354.515625,234.5 357,234.5 C359.484375,234.5 361.5,232.484375 361.5,230 Z M361.5,230" style="fill:none;stroke:rgb(180,200,240)" clip-path="url(#clip38)" />
<clipPath id="clip39"><path d="M351,224 L364,224 L364,237 L351,237 L351,224 Z" /></clipPath>
<path d="M355,230 L359,230" style="fill:none;stroke:rgb(150,160,200)" clip-path="url(#clip39)" />
<clipPath id="clip40"><path d="M370,217 L615,217 L615,244 L370,244 L370,217 Z" /></clipPath>
<path d="M372,242 L612,242" style="fill:none;stroke:rgb(128,128,128)" clip-path="url(#clip40)" />
<text x="377" y="230" style="font:10px Dialog">函数名 = function ([虚参列表]) {函数体;}</text>
<clipPath id="clip41"><path d="M167,252 L649,252 L649,437 L167,437 L167,252 Z" /></clipPath>
<path d="M252,344 L265,344" style="fill:none;stroke:rgb(128,128,128)" clip-path="url(#clip41)" />
<clipPath id="clip42"><path d="M167,252 L649,252 L649,437 L167,437 L167,252 Z" /></clipPath>
<path d="M265,344 L265,277 L274,277" style="fill:none;stroke:rgb(128,128,128)" clip-path="url(#clip42)" />
<clipPath id="clip43"><path d="M167,252 L649,252 L649,437 L167,437 L167,252 Z" /></clipPath>
<path d="M265,344 L265,303 L274,303" style="fill:none;stroke:rgb(128,128,128)" clip-path="url(#clip43)" />
<clipPath id="clip44"><path d="M167,252 L649,252 L649,437 L167,437 L167,252 Z" /></clipPath>
<path d="M265,344 L265,329 L274,329" style="fill:none;stroke:rgb(128,128,128)" clip-path="url(#clip44)" />
<clipPath id="clip45"><path d="M167,252 L649,252 L649,437 L167,437 L167,252 Z" /></clipPath>
<path d="M265,344 L265,395 L274,395" style="fill:none;stroke:rgb(128,128,128)" clip-path="url(#clip45)" />
<clipPath id="clip46"><path d="M167,323 L255,323 L255,366 L167,366 L167,323 Z" /></clipPath>
<path d="M169,325 L252,325 L252,363 L169,363 Z M169,325" style="fill:rgb(158,176,206);stroke:none" clip-path="url(#clip46)" />
<clipPath id="clip47"><path d="M167,323 L255,323 L255,366 L167,366 L167,323 Z" /></clipPath>
<path d="M169,325 L252,325 L252,363 L169,363 Z M169,325" style="fill:none;stroke:rgb(128,128,128)" clip-path="url(#clip47)" />
<text x="176" y="344" style="font:13px Dialog">调用方法</text>
<clipPath id="clip48"><path d="M253,338 L266,338 L266,351 L253,351 L253,338 Z" /></clipPath>
<path d="M263.5,344 C263.5,341.515625 261.484375,339.5 259,339.5 C256.515625,339.5 254.5,341.515625 254.5,344 C254.5,346.484375 256.515625,348.5 259,348.5 C261.484375,348.5 263.5,346.484375 263.5,344 Z M263.5,344" style="fill:rgb(210,230,255);stroke:none" clip-path="url(#clip48)" />
<clipPath id="clip49"><path d="M253,338 L266,338 L266,351 L253,351 L253,338 Z" /></clipPath>
<path d="M263.5,344 C263.5,341.515625 261.484375,339.5 259,339.5 C256.515625,339.5 254.5,341.515625 254.5,344 C254.5,346.484375 256.515625,348.5 259,348.5 C261.484375,348.5 263.5,346.484375 263.5,344 Z M263.5,344" style="fill:none;stroke:rgb(180,200,240)" clip-path="url(#clip49)" />
<clipPath id="clip50"><path d="M253,338 L266,338 L266,351 L253,351 L253,338 Z" /></clipPath>
<path d="M257,344 L261,344" style="fill:none;stroke:rgb(150,160,200)" clip-path="url(#clip50)" />
<clipPath id="clip51"><path d="M272,252 L472,252 L472,279 L272,279 L272,252 Z" /></clipPath>
<path d="M337,277 L350,277" style="fill:none;stroke:rgb(128,128,128)" clip-path="url(#clip51)" />
<clipPath id="clip52"><path d="M272,252 L472,252 L472,279 L272,279 L272,252 Z" /></clipPath>
<path d="M350,277 C352,277 355,277 359,277" style="fill:none;stroke:rgb(128,128,128)" clip-path="url(#clip52)" />
<clipPath id="clip53"><path d="M272,252 L340,252 L340,279 L272,279 L272,252 Z" /></clipPath>
<path d="M274,277 L337,277" style="fill:none;stroke:rgb(128,128,128)" clip-path="url(#clip53)" />
<text x="279" y="265" style="font:10px Dialog">直接调用</text>
<clipPath id="clip54"><path d="M338,259 L351,259 L351,272 L338,272 L338,259 Z" /></clipPath>
<path d="M348.5,265 C348.5,262.515625 346.484375,260.5 344,260.5 C341.515625,260.5 339.5,262.515625 339.5,265 C339.5,267.484375 341.515625,269.5 344,269.5 C346.484375,269.5 348.5,267.484375 348.5,265 Z M348.5,265" style="fill:rgb(210,230,255);stroke:none" clip-path="url(#clip54)" />
<clipPath id="clip55"><path d="M338,259 L351,259 L351,272 L338,272 L338,259 Z" /></clipPath>
<path d="M348.5,265 C348.5,262.515625 346.484375,260.5 344,260.5 C341.515625,260.5 339.5,262.515625 339.5,265 C339.5,267.484375 341.515625,269.5 344,269.5 C346.484375,269.5 348.5,267.484375 348.5,265 Z M348.5,265" style="fill:none;stroke:rgb(180,200,240)" clip-path="url(#clip55)" />
<clipPath id="clip56"><path d="M338,259 L351,259 L351,272 L338,272 L338,259 Z" /></clipPath>
<path d="M342,265 L346,265" style="fill:none;stroke:rgb(150,160,200)" clip-path="url(#clip56)" />
<clipPath id="clip57"><path d="M357,252 L472,252 L472,279 L357,279 L357,252 Z" /></clipPath>
<path d="M359,277 L469,277" style="fill:none;stroke:rgb(128,128,128)" clip-path="url(#clip57)" />
<text x="364" y="265" style="font:10px Dialog">函数名(实参列表)</text>
<clipPath id="clip58"><path d="M272,278 L649,278 L649,305 L272,305 L272,278 Z" /></clipPath>
<path d="M363,303 L376,303" style="fill:none;stroke:rgb(128,128,128)" clip-path="url(#clip58)" />
<clipPath id="clip59"><path d="M272,278 L649,278 L649,305 L272,305 L272,278 Z" /></clipPath>
<path d="M376,303 C378,303 381,303 385,303" style="fill:none;stroke:rgb(128,128,128)" clip-path="url(#clip59)" />
<clipPath id="clip60"><path d="M272,278 L366,278 L366,305 L272,305 L272,278 Z" /></clipPath>
<path d="M274,303 L363,303" style="fill:none;stroke:rgb(128,128,128)" clip-path="url(#clip60)" />
<text x="279" y="291" style="font:10px Dialog">在连接中调用</text>
<clipPath id="clip61"><path d="M364,285 L377,285 L377,298 L364,298 L364,285 Z" /></clipPath>
<path d="M374.5,291 C374.5,288.515625 372.484375,286.5 370,286.5 C367.515625,286.5 365.5,288.515625 365.5,291 C365.5,293.484375 367.515625,295.5 370,295.5 C372.484375,295.5 374.5,293.484375 374.5,291 Z M374.5,291" style="fill:rgb(210,230,255);stroke:none" clip-path="url(#clip61)" />
<clipPath id="clip62"><path d="M364,285 L377,285 L377,298 L364,298 L364,285 Z" /></clipPath>
<path d="M374.5,291 C374.5,288.515625 372.484375,286.5 370,286.5 C367.515625,286.5 365.5,288.515625 365.5,291 C365.5,293.484375 367.515625,295.5 370,295.5 C372.484375,295.5 374.5,293.484375 374.5,291 Z M374.5,291" style="fill:none;stroke:rgb(180,200,240)" clip-path="url(#clip62)" />
<clipPath id="clip63"><path d="M364,285 L377,285 L377,298 L364,298 L364,285 Z" /></clipPath>
<path d="M368,291 L372,291" style="fill:none;stroke:rgb(150,160,200)" clip-path="url(#clip63)" />
<clipPath id="clip64"><path d="M383,278 L649,278 L649,305 L383,305 L383,278 Z" /></clipPath>
<path d="M385,303 L646,303" style="fill:none;stroke:rgb(128,128,128)" clip-path="url(#clip64)" />
<text x="390" y="291" style="font:10px Dialog">&lt;a href="javascript:函数名()"&gt;描述文字&lt;/a&gt;</text>
<clipPath id="clip65"><path d="M272,304 L521,304 L521,331 L272,331 L272,304 Z" /></clipPath>
<path d="M363,329 L376,329" style="fill:none;stroke:rgb(128,128,128)" clip-path="url(#clip65)" />
<clipPath id="clip66"><path d="M272,304 L521,304 L521,331 L272,331 L272,304 Z" /></clipPath>
<path d="M376,329 C378,329 381,329 385,329" style="fill:none;stroke:rgb(128,128,128)" clip-path="url(#clip66)" />
<clipPath id="clip67"><path d="M272,304 L366,304 L366,331 L272,331 L272,304 Z" /></clipPath>
<path d="M274,329 L363,329" style="fill:none;stroke:rgb(128,128,128)" clip-path="url(#clip67)" />
<text x="279" y="317" style="font:10px Dialog">在事件中调用</text>
<clipPath id="clip68"><path d="M364,311 L377,311 L377,324 L364,324 L364,311 Z" /></clipPath>
<path d="M374.5,317 C374.5,314.515625 372.484375,312.5 370,312.5 C367.515625,312.5 365.5,314.515625 365.5,317 C365.5,319.484375 367.515625,321.5 370,321.5 C372.484375,321.5 374.5,319.484375 374.5,317 Z M374.5,317" style="fill:rgb(210,230,255);stroke:none" clip-path="url(#clip68)" />
<clipPath id="clip69"><path d="M364,311 L377,311 L377,324 L364,324 L364,311 Z" /></clipPath>
<path d="M374.5,317 C374.5,314.515625 372.484375,312.5 370,312.5 C367.515625,312.5 365.5,314.515625 365.5,317 C365.5,319.484375 367.515625,321.5 370,321.5 C372.484375,321.5 374.5,319.484375 374.5,317 Z M374.5,317" style="fill:none;stroke:rgb(180,200,240)" clip-path="url(#clip69)" />
<clipPath id="clip70"><path d="M364,311 L377,311 L377,324 L364,324 L364,311 Z" /></clipPath>
<path d="M368,317 L372,317" style="fill:none;stroke:rgb(150,160,200)" clip-path="url(#clip70)" />
<clipPath id="clip71"><path d="M383,304 L521,304 L521,331 L383,331 L383,304 Z" /></clipPath>
<path d="M385,329 L518,329" style="fill:none;stroke:rgb(128,128,128)" clip-path="url(#clip71)" />
<text x="390" y="317" style="font:10px Dialog">事件类型 = "函数名()"</text>
<clipPath id="clip72"><path d="M272,330 L562,330 L562,437 L272,437 L272,330 Z" /></clipPath>
<path d="M337,395 L350,395" style="fill:none;stroke:rgb(128,128,128)" clip-path="url(#clip72)" />
<clipPath id="clip73"><path d="M272,330 L562,330 L562,437 L272,437 L272,330 Z" /></clipPath>
<path d="M350,395 L350,355 L359,355" style="fill:none;stroke:rgb(128,128,128)" clip-path="url(#clip73)" />
<clipPath id="clip74"><path d="M272,330 L562,330 L562,437 L272,437 L272,330 Z" /></clipPath>
<path d="M350,395 L350,408 L359,408" style="fill:none;stroke:rgb(128,128,128)" clip-path="url(#clip74)" />
<clipPath id="clip75"><path d="M272,370 L340,370 L340,397 L272,397 L272,370 Z" /></clipPath>
<path d="M274,395 L337,395" style="fill:none;stroke:rgb(128,128,128)" clip-path="url(#clip75)" />
<text x="279" y="383" style="font:10px Dialog">递归调用</text>
<clipPath id="clip76"><path d="M338,377 L351,377 L351,390 L338,390 L338,377 Z" /></clipPath>
<path d="M348.5,383 C348.5,380.515625 346.484375,378.5 344,378.5 C341.515625,378.5 339.5,380.515625 339.5,383 C339.5,385.484375 341.515625,387.5 344,387.5 C346.484375,387.5 348.5,385.484375 348.5,383 Z M348.5,383" style="fill:rgb(210,230,255);stroke:none" clip-path="url(#clip76)" />
<clipPath id="clip77"><path d="M338,377 L351,377 L351,390 L338,390 L338,377 Z" /></clipPath>
<path d="M348.5,383 C348.5,380.515625 346.484375,378.5 344,378.5 C341.515625,378.5 339.5,380.515625 339.5,383 C339.5,385.484375 341.515625,387.5 344,387.5 C346.484375,387.5 348.5,385.484375 348.5,383 Z M348.5,383" style="fill:none;stroke:rgb(180,200,240)" clip-path="url(#clip77)" />
<clipPath id="clip78"><path d="M338,377 L351,377 L351,390 L338,390 L338,377 Z" /></clipPath>
<path d="M342,383 L346,383" style="fill:none;stroke:rgb(150,160,200)" clip-path="url(#clip78)" />
<clipPath id="clip79"><path d="M357,330 L562,330 L562,357 L357,357 L357,330 Z" /></clipPath>
<path d="M396,355 L409,355" style="fill:none;stroke:rgb(128,128,128)" clip-path="url(#clip79)" />
<clipPath id="clip80"><path d="M357,330 L562,330 L562,357 L357,357 L357,330 Z" /></clipPath>
<path d="M409,355 C411,355 414,355 418,355" style="fill:none;stroke:rgb(128,128,128)" clip-path="url(#clip80)" />
<clipPath id="clip81"><path d="M357,330 L399,330 L399,357 L357,357 L357,330 Z" /></clipPath>
<path d="M359,355 L396,355" style="fill:none;stroke:rgb(128,128,128)" clip-path="url(#clip81)" />
<text x="364" y="343" style="font:10px Dialog">定义</text>
<clipPath id="clip82"><path d="M397,337 L410,337 L410,350 L397,350 L397,337 Z" /></clipPath>
<path d="M407.5,343 C407.5,340.515625 405.484375,338.5 403,338.5 C400.515625,338.5 398.5,340.515625 398.5,343 C398.5,345.484375 400.515625,347.5 403,347.5 C405.484375,347.5 407.5,345.484375 407.5,343 Z M407.5,343" style="fill:rgb(210,230,255);stroke:none" clip-path="url(#clip82)" />
<clipPath id="clip83"><path d="M397,337 L410,337 L410,350 L397,350 L397,337 Z" /></clipPath>
<path d="M407.5,343 C407.5,340.515625 405.484375,338.5 403,338.5 C400.515625,338.5 398.5,340.515625 398.5,343 C398.5,345.484375 400.515625,347.5 403,347.5 C405.484375,347.5 407.5,345.484375 407.5,343 Z M407.5,343" style="fill:none;stroke:rgb(180,200,240)" clip-path="url(#clip83)" />
<clipPath id="clip84"><path d="M397,337 L410,337 L410,350 L397,350 L397,337 Z" /></clipPath>
<path d="M401,343 L405,343" style="fill:none;stroke:rgb(150,160,200)" clip-path="url(#clip84)" />
<clipPath id="clip85"><path d="M416,330 L562,330 L562,357 L416,357 L416,330 Z" /></clipPath>
<path d="M418,355 L559,355" style="fill:none;stroke:rgb(128,128,128)" clip-path="url(#clip85)" />
<text x="423" y="343" style="font:10px Dialog">在函数体内部调用本身</text>
<clipPath id="clip86"><path d="M357,356 L537,356 L537,437 L357,437 L357,356 Z" /></clipPath>
<path d="M396,408 L409,408" style="fill:none;stroke:rgb(128,128,128)" clip-path="url(#clip86)" />
<clipPath id="clip87"><path d="M357,356 L537,356 L537,437 L357,437 L357,356 Z" /></clipPath>
<path d="M409,408 C411,426 414,435 418,435" style="fill:none;stroke:rgb(128,128,128)" clip-path="url(#clip87)" />
<clipPath id="clip88"><path d="M357,383 L399,383 L399,410 L357,410 L357,383 Z" /></clipPath>
<path d="M359,408 L396,408" style="fill:none;stroke:rgb(128,128,128)" clip-path="url(#clip88)" />
<text x="364" y="396" style="font:10px Dialog">格式</text>
<clipPath id="clip89"><path d="M397,390 L410,390 L410,403 L397,403 L397,390 Z" /></clipPath>
<path d="M407.5,396 C407.5,393.515625 405.484375,391.5 403,391.5 C400.515625,391.5 398.5,393.515625 398.5,396 C398.5,398.484375 400.515625,400.5 403,400.5 C405.484375,400.5 407.5,398.484375 407.5,396 Z M407.5,396" style="fill:rgb(210,230,255);stroke:none" clip-path="url(#clip89)" />
<clipPath id="clip90"><path d="M397,390 L410,390 L410,403 L397,403 L397,390 Z" /></clipPath>
<path d="M407.5,396 C407.5,393.515625 405.484375,391.5 403,391.5 C400.515625,391.5 398.5,393.515625 398.5,396 C398.5,398.484375 400.515625,400.5 403,400.5 C405.484375,400.5 407.5,398.484375 407.5,396 Z M407.5,396" style="fill:none;stroke:rgb(180,200,240)" clip-path="url(#clip90)" />
<clipPath id="clip91"><path d="M397,390 L410,390 L410,403 L397,403 L397,390 Z" /></clipPath>
<path d="M401,396 L405,396" style="fill:none;stroke:rgb(150,160,200)" clip-path="url(#clip91)" />
<clipPath id="clip92"><path d="M416,356 L537,356 L537,437 L416,437 L416,356 Z" /></clipPath>
<path d="M418,435 L534,435" style="fill:none;stroke:rgb(128,128,128)" clip-path="url(#clip92)" />
<text x="423" y="369" style="font:10px Dialog">function 函数名(){</text>
<text x="423" y="387" style="font:10px Dialog">	代码</text>
<text x="423" y="405" style="font:10px Dialog">	函数名();</text>
<text x="423" y="423" style="font:10px Dialog">}</text>
<clipPath id="clip93"><path d="M167,445 L515,445 L515,560 L167,560 L167,445 Z" /></clipPath>
<path d="M218,502 L231,502" style="fill:none;stroke:rgb(128,128,128)" clip-path="url(#clip93)" />
<clipPath id="clip94"><path d="M167,445 L515,445 L515,560 L167,560 L167,445 Z" /></clipPath>
<path d="M231,502 L231,478 L240,478" style="fill:none;stroke:rgb(128,128,128)" clip-path="url(#clip94)" />
<clipPath id="clip95"><path d="M167,445 L515,445 L515,560 L167,560 L167,445 Z" /></clipPath>
<path d="M231,502 L231,522 L240,522" style="fill:none;stroke:rgb(128,128,128)" clip-path="url(#clip95)" />
<clipPath id="clip96"><path d="M167,445 L515,445 L515,560 L167,560 L167,445 Z" /></clipPath>
<path d="M231,502 L231,557 L240,557" style="fill:none;stroke:rgb(128,128,128)" clip-path="url(#clip96)" />
<clipPath id="clip97"><path d="M167,481 L221,481 L221,524 L167,524 L167,481 Z" /></clipPath>
<path d="M169,488 C169,485.2382813 171.2382813,483 174,483 L213,483 C215.7617188,483 218,485.2382813 218,488 L218,516 C218,518.7617188 215.7617188,521 213,521 L174,521 C171.2382813,521 169,518.7617188 169,516 Z M169,488" style="fill:rgb(158,176,206);stroke:none" clip-path="url(#clip97)" />
<clipPath id="clip98"><path d="M167,481 L221,481 L221,524 L167,524 L167,481 Z" /></clipPath>
<path d="M169,488 C169,485.2382813 171.2382813,483 174,483 L213,483 C215.7617188,483 218,485.2382813 218,488 L218,516 C218,518.7617188 215.7617188,521 213,521 L174,521 C171.2382813,521 169,518.7617188 169,516 Z M169,488" style="fill:none;stroke:rgb(128,128,128)" clip-path="url(#clip98)" />
<text x="176" y="502" style="font:13px Dialog">方法</text>
<clipPath id="clip99"><path d="M219,496 L232,496 L232,509 L219,509 L219,496 Z" /></clipPath>
<path d="M229.5,502 C229.5,499.515625 227.484375,497.5 225,497.5 C222.515625,497.5 220.5,499.515625 220.5,502 C220.5,504.484375 222.515625,506.5 225,506.5 C227.484375,506.5 229.5,504.484375 229.5,502 Z M229.5,502" style="fill:rgb(210,230,255);stroke:none" clip-path="url(#clip99)" />
<clipPath id="clip100"><path d="M219,496 L232,496 L232,509 L219,509 L219,496 Z" /></clipPath>
<path d="M229.5,502 C229.5,499.515625 227.484375,497.5 225,497.5 C222.515625,497.5 220.5,499.515625 220.5,502 C220.5,504.484375 222.515625,506.5 225,506.5 C227.484375,506.5 229.5,504.484375 229.5,502 Z M229.5,502" style="fill:none;stroke:rgb(180,200,240)" clip-path="url(#clip100)" />
<clipPath id="clip101"><path d="M219,496 L232,496 L232,509 L219,509 L219,496 Z" /></clipPath>
<path d="M223,502 L227,502" style="fill:none;stroke:rgb(150,160,200)" clip-path="url(#clip101)" />
<clipPath id="clip102"><path d="M238,445 L515,445 L515,490 L238,490 L238,445 Z" /></clipPath>
<path d="M284,478 L297,478" style="fill:none;stroke:rgb(128,128,128)" clip-path="url(#clip102)" />
<clipPath id="clip103"><path d="M238,445 L515,445 L515,490 L238,490 L238,445 Z" /></clipPath>
<path d="M297,478 C299,484.6679688 302,488 306,488" style="fill:none;stroke:rgb(128,128,128)" clip-path="url(#clip103)" />
<clipPath id="clip104"><path d="M238,454 L287,454 L287,480 L238,480 L238,454 Z" /></clipPath>
<path d="M240,478 L284,478" style="fill:none;stroke:rgb(128,128,128)" clip-path="url(#clip104)" />
<text x="245" y="467" style="font:10px Dialog">apply</text>
<clipPath id="clip105"><path d="M285,461 L298,461 L298,474 L285,474 L285,461 Z" /></clipPath>
<path d="M295.5,467 C295.5,464.515625 293.484375,462.5 291,462.5 C288.515625,462.5 286.5,464.515625 286.5,467 C286.5,469.484375 288.515625,471.5 291,471.5 C293.484375,471.5 295.5,469.484375 295.5,467 Z M295.5,467" style="fill:rgb(210,230,255);stroke:none" clip-path="url(#clip105)" />
<clipPath id="clip106"><path d="M285,461 L298,461 L298,474 L285,474 L285,461 Z" /></clipPath>
<path d="M295.5,467 C295.5,464.515625 293.484375,462.5 291,462.5 C288.515625,462.5 286.5,464.515625 286.5,467 C286.5,469.484375 288.515625,471.5 291,471.5 C293.484375,471.5 295.5,469.484375 295.5,467 Z M295.5,467" style="fill:none;stroke:rgb(180,200,240)" clip-path="url(#clip106)" />
<clipPath id="clip107"><path d="M285,461 L298,461 L298,474 L285,474 L285,461 Z" /></clipPath>
<path d="M289,467 L293,467" style="fill:none;stroke:rgb(150,160,200)" clip-path="url(#clip107)" />
<clipPath id="clip108"><path d="M304,445 L515,445 L515,490 L304,490 L304,445 Z" /></clipPath>
<path d="M306,488 L512,488" style="fill:none;stroke:rgb(128,128,128)" clip-path="url(#clip108)" />
<text x="311" y="458" style="font:10px Dialog">将函数作为对象的方法来调用</text>
<text x="311" y="476" style="font:10px Dialog">将参数以数组的形式传递给该方法</text>
<clipPath id="clip109"><path d="M238,489 L475,489 L475,534 L238,534 L238,489 Z" /></clipPath>
<path d="M270,522 L283,522" style="fill:none;stroke:rgb(128,128,128)" clip-path="url(#clip109)" />
<clipPath id="clip110"><path d="M238,489 L475,489 L475,534 L238,534 L238,489 Z" /></clipPath>
<path d="M283,522 C285,528.6679688 288,532 292,532" style="fill:none;stroke:rgb(128,128,128)" clip-path="url(#clip110)" />
<clipPath id="clip111"><path d="M238,498 L273,498 L273,524 L238,524 L238,498 Z" /></clipPath>
<path d="M240,522 L270,522" style="fill:none;stroke:rgb(128,128,128)" clip-path="url(#clip111)" />
<text x="245" y="511" style="font:10px Dialog">call</text>
<clipPath id="clip112"><path d="M271,505 L284,505 L284,518 L271,518 L271,505 Z" /></clipPath>
<path d="M281.5,511 C281.5,508.515625 279.484375,506.5 277,506.5 C274.515625,506.5 272.5,508.515625 272.5,511 C272.5,513.484375 274.515625,515.5 277,515.5 C279.484375,515.5 281.5,513.484375 281.5,511 Z M281.5,511" style="fill:rgb(210,230,255);stroke:none" clip-path="url(#clip112)" />
<clipPath id="clip113"><path d="M271,505 L284,505 L284,518 L271,518 L271,505 Z" /></clipPath>
<path d="M281.5,511 C281.5,508.515625 279.484375,506.5 277,506.5 C274.515625,506.5 272.5,508.515625 272.5,511 C272.5,513.484375 274.515625,515.5 277,515.5 C279.484375,515.5 281.5,513.484375 281.5,511 Z M281.5,511" style="fill:none;stroke:rgb(180,200,240)" clip-path="url(#clip113)" />
<clipPath id="clip114"><path d="M271,505 L284,505 L284,518 L271,518 L271,505 Z" /></clipPath>
<path d="M275,511 L279,511" style="fill:none;stroke:rgb(150,160,200)" clip-path="url(#clip114)" />
<clipPath id="clip115"><path d="M290,489 L475,489 L475,534 L290,534 L290,489 Z" /></clipPath>
<path d="M292,532 L472,532" style="fill:none;stroke:rgb(128,128,128)" clip-path="url(#clip115)" />
<text x="297" y="502" style="font:10px Dialog">将函数作为对象的方法来调用</text>
<text x="297" y="520" style="font:10px Dialog">将指定参数传递给该方法</text>
<clipPath id="clip116"><path d="M238,533 L465,533 L465,560 L238,560 L238,533 Z" /></clipPath>
<path d="M299,557 L312,557" style="fill:none;stroke:rgb(128,128,128)" clip-path="url(#clip116)" />
<clipPath id="clip117"><path d="M238,533 L465,533 L465,560 L238,560 L238,533 Z" /></clipPath>
<path d="M312,557 C314,557.6679688 317,558 321,558" style="fill:none;stroke:rgb(128,128,128)" clip-path="url(#clip117)" />
<clipPath id="clip118"><path d="M238,533 L302,533 L302,559 L238,559 L238,533 Z" /></clipPath>
<path d="M240,557 L299,557" style="fill:none;stroke:rgb(128,128,128)" clip-path="url(#clip118)" />
<text x="245" y="546" style="font:10px Dialog">toString</text>
<clipPath id="clip119"><path d="M300,540 L313,540 L313,553 L300,553 L300,540 Z" /></clipPath>
<path d="M310.5,546 C310.5,543.515625 308.484375,541.5 306,541.5 C303.515625,541.5 301.5,543.515625 301.5,546 C301.5,548.484375 303.515625,550.5 306,550.5 C308.484375,550.5 310.5,548.484375 310.5,546 Z M310.5,546" style="fill:rgb(210,230,255);stroke:none" clip-path="url(#clip119)" />
<clipPath id="clip120"><path d="M300,540 L313,540 L313,553 L300,553 L300,540 Z" /></clipPath>
<path d="M310.5,546 C310.5,543.515625 308.484375,541.5 306,541.5 C303.515625,541.5 301.5,543.515625 301.5,546 C301.5,548.484375 303.515625,550.5 306,550.5 C308.484375,550.5 310.5,548.484375 310.5,546 Z M310.5,546" style="fill:none;stroke:rgb(180,200,240)" clip-path="url(#clip120)" />
<clipPath id="clip121"><path d="M300,540 L313,540 L313,553 L300,553 L300,540 Z" /></clipPath>
<path d="M304,546 L308,546" style="fill:none;stroke:rgb(150,160,200)" clip-path="url(#clip121)" />
<clipPath id="clip122"><path d="M319,533 L465,533 L465,560 L319,560 L319,533 Z" /></clipPath>
<path d="M321,558 L462,558" style="fill:none;stroke:rgb(128,128,128)" clip-path="url(#clip122)" />
<text x="326" y="546" style="font:10px Dialog">返回函数的字符串表示</text>
<clipPath id="clip123"><path d="M167,568 L669,568 L669,751 L167,751 L167,568 Z" /></clipPath>
<path d="M302,659 L315,659" style="fill:none;stroke:rgb(128,128,128)" clip-path="url(#clip123)" />
<clipPath id="clip124"><path d="M167,568 L669,568 L669,751 L167,751 L167,568 Z" /></clipPath>
<path d="M315,659 L315,593 L324,593" style="fill:none;stroke:rgb(128,128,128)" clip-path="url(#clip124)" />
<clipPath id="clip125"><path d="M167,568 L669,568 L669,751 L167,751 L167,568 Z" /></clipPath>
<path d="M315,659 L315,645 L324,645" style="fill:none;stroke:rgb(128,128,128)" clip-path="url(#clip125)" />
<clipPath id="clip126"><path d="M167,568 L669,568 L669,751 L167,751 L167,568 Z" /></clipPath>
<path d="M315,659 L315,723 L324,723" style="fill:none;stroke:rgb(128,128,128)" clip-path="url(#clip126)" />
<clipPath id="clip127"><path d="M167,638 L305,638 L305,681 L167,681 L167,638 Z" /></clipPath>
<path d="M169,640 L302,640 L302,678 L169,678 Z M169,640" style="fill:rgb(158,176,206);stroke:none" clip-path="url(#clip127)" />
<clipPath id="clip128"><path d="M167,638 L305,638 L305,681 L167,681 L167,638 Z" /></clipPath>
<path d="M169,640 L302,640 L302,678 L169,678 Z M169,640" style="fill:none;stroke:rgb(128,128,128)" clip-path="url(#clip128)" />
<text x="176" y="659" style="font:13px Dialog">arguments对象</text>
<clipPath id="clip129"><path d="M303,653 L316,653 L316,666 L303,666 L303,653 Z" /></clipPath>
<path d="M313.5,659 C313.5,656.515625 311.484375,654.5 309,654.5 C306.515625,654.5 304.5,656.515625 304.5,659 C304.5,661.484375 306.515625,663.5 309,663.5 C311.484375,663.5 313.5,661.484375 313.5,659 Z M313.5,659" style="fill:rgb(210,230,255);stroke:none" clip-path="url(#clip129)" />
<clipPath id="clip130"><path d="M303,653 L316,653 L316,666 L303,666 L303,653 Z" /></clipPath>
<path d="M313.5,659 C313.5,656.515625 311.484375,654.5 309,654.5 C306.515625,654.5 304.5,656.515625 304.5,659 C304.5,661.484375 306.515625,663.5 309,663.5 C311.484375,663.5 313.5,661.484375 313.5,659 Z M313.5,659" style="fill:none;stroke:rgb(180,200,240)" clip-path="url(#clip130)" />
<clipPath id="clip131"><path d="M303,653 L316,653 L316,666 L303,666 L303,653 Z" /></clipPath>
<path d="M307,659 L311,659" style="fill:none;stroke:rgb(150,160,200)" clip-path="url(#clip131)" />
<clipPath id="clip132"><path d="M322,568 L514,568 L514,595 L322,595 L322,568 Z" /></clipPath>
<path d="M361,593 L374,593" style="fill:none;stroke:rgb(128,128,128)" clip-path="url(#clip132)" />
<clipPath id="clip133"><path d="M322,568 L514,568 L514,595 L322,595 L322,568 Z" /></clipPath>
<path d="M374,593 C376,593 379,593 383,593" style="fill:none;stroke:rgb(128,128,128)" clip-path="url(#clip133)" />
<clipPath id="clip134"><path d="M322,568 L364,568 L364,595 L322,595 L322,568 Z" /></clipPath>
<path d="M324,593 L361,593" style="fill:none;stroke:rgb(128,128,128)" clip-path="url(#clip134)" />
<text x="329" y="581" style="font:10px Dialog">功能</text>
<clipPath id="clip135"><path d="M362,575 L375,575 L375,588 L362,588 L362,575 Z" /></clipPath>
<path d="M372.5,581 C372.5,578.515625 370.484375,576.5 368,576.5 C365.515625,576.5 363.5,578.515625 363.5,581 C363.5,583.484375 365.515625,585.5 368,585.5 C370.484375,585.5 372.5,583.484375 372.5,581 Z M372.5,581" style="fill:rgb(210,230,255);stroke:none" clip-path="url(#clip135)" />
<clipPath id="clip136"><path d="M362,575 L375,575 L375,588 L362,588 L362,575 Z" /></clipPath>
<path d="M372.5,581 C372.5,578.515625 370.484375,576.5 368,576.5 C365.515625,576.5 363.5,578.515625 363.5,581 C363.5,583.484375 365.515625,585.5 368,585.5 C370.484375,585.5 372.5,583.484375 372.5,581 Z M372.5,581" style="fill:none;stroke:rgb(180,200,240)" clip-path="url(#clip136)" />
<clipPath id="clip137"><path d="M362,575 L375,575 L375,588 L362,588 L362,575 Z" /></clipPath>
<path d="M366,581 L370,581" style="fill:none;stroke:rgb(150,160,200)" clip-path="url(#clip137)" />
<clipPath id="clip138"><path d="M381,568 L514,568 L514,595 L381,595 L381,568 Z" /></clipPath>
<path d="M383,593 L511,593" style="fill:none;stroke:rgb(128,128,128)" clip-path="url(#clip138)" />
<text x="388" y="581" style="font:10px Dialog">存放实参的参数列表</text>
<clipPath id="clip139"><path d="M322,594 L553,594 L553,673 L322,673 L322,594 Z" /></clipPath>
<path d="M361,645 L374,645" style="fill:none;stroke:rgb(128,128,128)" clip-path="url(#clip139)" />
<clipPath id="clip140"><path d="M322,594 L553,594 L553,673 L322,673 L322,594 Z" /></clipPath>
<path d="M374,645 L374,607.1757813 L382,607.1757813" style="fill:none;stroke:rgb(128,128,128)" clip-path="url(#clip140)" />
<clipPath id="clip141"><path d="M322,594 L553,594 L553,673 L322,673 L322,594 Z" /></clipPath>
<path d="M374,645 L374,633.0742188 L382,633.0742188" style="fill:none;stroke:rgb(128,128,128)" clip-path="url(#clip141)" />
<clipPath id="clip142"><path d="M322,594 L553,594 L553,673 L322,673 L322,594 Z" /></clipPath>
<path d="M374,645 L374,659.140625 L382,659.140625" style="fill:none;stroke:rgb(128,128,128)" clip-path="url(#clip142)" />
<clipPath id="clip143"><path d="M322,620 L364,620 L364,647 L322,647 L322,620 Z" /></clipPath>
<path d="M324,645 L361,645" style="fill:none;stroke:rgb(128,128,128)" clip-path="url(#clip143)" />
<text x="329" y="633" style="font:10px Dialog">特性</text>
<clipPath id="clip144"><path d="M362,627 L375,627 L375,640 L362,640 L362,627 Z" /></clipPath>
<path d="M372.5,633 C372.5,630.515625 370.484375,628.5 368,628.5 C365.515625,628.5 363.5,630.515625 363.5,633 C363.5,635.484375 365.515625,637.5 368,637.5 C370.484375,637.5 372.5,635.484375 372.5,633 Z M372.5,633" style="fill:rgb(210,230,255);stroke:none" clip-path="url(#clip144)" />
<clipPath id="clip145"><path d="M362,627 L375,627 L375,640 L362,640 L362,627 Z" /></clipPath>
<path d="M372.5,633 C372.5,630.515625 370.484375,628.5 368,628.5 C365.515625,628.5 363.5,630.515625 363.5,633 C363.5,635.484375 365.515625,637.5 368,637.5 C370.484375,637.5 372.5,635.484375 372.5,633 Z M372.5,633" style="fill:none;stroke:rgb(180,200,240)" clip-path="url(#clip145)" />
<clipPath id="clip146"><path d="M362,627 L375,627 L375,640 L362,640 L362,627 Z" /></clipPath>
<path d="M366,633 L370,633" style="fill:none;stroke:rgb(150,160,200)" clip-path="url(#clip146)" />
<text x="388" y="607" style="font:10px Dialog">仅能在函数体内使用</text>
<text x="388" y="633" style="font:10px Dialog">带有下标属性，但并非数组</text>
<text x="388" y="659" style="font:10px Dialog">函数声明是自动初始化</text>
<clipPath id="clip147"><path d="M322,672 L669,672 L669,751 L322,751 L322,672 Z" /></clipPath>
<path d="M361,723 L374,723" style="fill:none;stroke:rgb(128,128,128)" clip-path="url(#clip147)" />
<clipPath id="clip148"><path d="M322,672 L669,672 L669,751 L322,751 L322,672 Z" /></clipPath>
<path d="M374,723 L374,685 L382,685" style="fill:none;stroke:rgb(128,128,128)" clip-path="url(#clip148)" />
<clipPath id="clip149"><path d="M322,672 L669,672 L669,751 L322,751 L322,672 Z" /></clipPath>
<path d="M374,723 L374,711 L382,711" style="fill:none;stroke:rgb(128,128,128)" clip-path="url(#clip149)" />
<clipPath id="clip150"><path d="M322,672 L669,672 L669,751 L322,751 L322,672 Z" /></clipPath>
<path d="M374,723 L374,737 L382,737" style="fill:none;stroke:rgb(128,128,128)" clip-path="url(#clip150)" />
<clipPath id="clip151"><path d="M322,698 L364,698 L364,725 L322,725 L322,698 Z" /></clipPath>
<path d="M324,723 L361,723" style="fill:none;stroke:rgb(128,128,128)" clip-path="url(#clip151)" />
<text x="329" y="711" style="font:10px Dialog">属性</text>
<clipPath id="clip152"><path d="M362,705 L375,705 L375,718 L362,718 L362,705 Z" /></clipPath>
<path d="M372.5,711 C372.5,708.515625 370.484375,706.5 368,706.5 C365.515625,706.5 363.5,708.515625 363.5,711 C363.5,713.484375 365.515625,715.5 368,715.5 C370.484375,715.5 372.5,713.484375 372.5,711 Z M372.5,711" style="fill:rgb(210,230,255);stroke:none" clip-path="url(#clip152)" />
<clipPath id="clip153"><path d="M362,705 L375,705 L375,718 L362,718 L362,705 Z" /></clipPath>
<path d="M372.5,711 C372.5,708.515625 370.484375,706.5 368,706.5 C365.515625,706.5 363.5,708.515625 363.5,711 C363.5,713.484375 365.515625,715.5 368,715.5 C370.484375,715.5 372.5,713.484375 372.5,711 Z M372.5,711" style="fill:none;stroke:rgb(180,200,240)" clip-path="url(#clip153)" />
<clipPath id="clip154"><path d="M362,705 L375,705 L375,718 L362,718 L362,705 Z" /></clipPath>
<path d="M366,711 L370,711" style="fill:none;stroke:rgb(150,160,200)" clip-path="url(#clip154)" />
<clipPath id="clip155"><path d="M381,672 L585,672 L585,699 L381,699 L381,672 Z" /></clipPath>
<path d="M434,685 L447,685" style="fill:none;stroke:rgb(128,128,128)" clip-path="url(#clip155)" />
<clipPath id="clip156"><path d="M381,672 L585,672 L585,699 L381,699 L381,672 Z" /></clipPath>
<path d="M447,685 C448.5546875,693 450.890625,697 454,697" style="fill:none;stroke:rgb(128,128,128)" clip-path="url(#clip156)" />
<text x="388" y="685" style="font:10px Dialog">length</text>
<clipPath id="clip157"><path d="M433,679 L446,679 L446,692 L433,692 L433,679 Z" /></clipPath>
<path d="M443.5,685 C443.5,682.515625 441.484375,680.5 439,680.5 C436.515625,680.5 434.5,682.515625 434.5,685 C434.5,687.484375 436.515625,689.5 439,689.5 C441.484375,689.5 443.5,687.484375 443.5,685 Z M443.5,685" style="fill:rgb(210,230,255);stroke:none" clip-path="url(#clip157)" />
<clipPath id="clip158"><path d="M433,679 L446,679 L446,692 L433,692 L433,679 Z" /></clipPath>
<path d="M443.5,685 C443.5,682.515625 441.484375,680.5 439,680.5 C436.515625,680.5 434.5,682.515625 434.5,685 C434.5,687.484375 436.515625,689.5 439,689.5 C441.484375,689.5 443.5,687.484375 443.5,685 Z M443.5,685" style="fill:none;stroke:rgb(180,200,240)" clip-path="url(#clip158)" />
<clipPath id="clip159"><path d="M433,679 L446,679 L446,692 L433,692 L433,679 Z" /></clipPath>
<path d="M437,685 L441,685" style="fill:none;stroke:rgb(150,160,200)" clip-path="url(#clip159)" />
<clipPath id="clip160"><path d="M452,672 L585,672 L585,699 L452,699 L452,672 Z" /></clipPath>
<path d="M454,697 L582,697" style="fill:none;stroke:rgb(128,128,128)" clip-path="url(#clip160)" />
<text x="459" y="685" style="font:10px Dialog">获取函数参数的个数</text>
<clipPath id="clip161"><path d="M381,698 L606,698 L606,725 L381,725 L381,698 Z" /></clipPath>
<path d="M429,711 L442,711" style="fill:none;stroke:rgb(128,128,128)" clip-path="url(#clip161)" />
<clipPath id="clip162"><path d="M381,698 L606,698 L606,725 L381,725 L381,698 Z" /></clipPath>
<path d="M442,711 C443.5546875,719 445.890625,723 449,723" style="fill:none;stroke:rgb(128,128,128)" clip-path="url(#clip162)" />
<text x="388" y="711" style="font:10px Dialog">callee</text>
<clipPath id="clip163"><path d="M428,705 L441,705 L441,718 L428,718 L428,705 Z" /></clipPath>
<path d="M438.5,711 C438.5,708.515625 436.484375,706.5 434,706.5 C431.515625,706.5 429.5,708.515625 429.5,711 C429.5,713.484375 431.515625,715.5 434,715.5 C436.484375,715.5 438.5,713.484375 438.5,711 Z M438.5,711" style="fill:rgb(210,230,255);stroke:none" clip-path="url(#clip163)" />
<clipPath id="clip164"><path d="M428,705 L441,705 L441,718 L428,718 L428,705 Z" /></clipPath>
<path d="M438.5,711 C438.5,708.515625 436.484375,706.5 434,706.5 C431.515625,706.5 429.5,708.515625 429.5,711 C429.5,713.484375 431.515625,715.5 434,715.5 C436.484375,715.5 438.5,713.484375 438.5,711 Z M438.5,711" style="fill:none;stroke:rgb(180,200,240)" clip-path="url(#clip164)" />
<clipPath id="clip165"><path d="M428,705 L441,705 L441,718 L428,718 L428,705 Z" /></clipPath>
<path d="M432,711 L436,711" style="fill:none;stroke:rgb(150,160,200)" clip-path="url(#clip165)" />
<clipPath id="clip166"><path d="M447,698 L606,698 L606,725 L447,725 L447,698 Z" /></clipPath>
<path d="M449,723 L603,723" style="fill:none;stroke:rgb(128,128,128)" clip-path="url(#clip166)" />
<text x="454" y="711" style="font:10px Dialog">返回当前正在指向的函数</text>
<clipPath id="clip167"><path d="M381,724 L669,724 L669,751 L381,751 L381,724 Z" /></clipPath>
<path d="M427,737 L440,737" style="fill:none;stroke:rgb(128,128,128)" clip-path="url(#clip167)" />
<clipPath id="clip168"><path d="M381,724 L669,724 L669,751 L381,751 L381,724 Z" /></clipPath>
<path d="M440,737 C441.5546875,745 443.890625,749 447,749" style="fill:none;stroke:rgb(128,128,128)" clip-path="url(#clip168)" />
<text x="388" y="737" style="font:10px Dialog">caller</text>
<clipPath id="clip169"><path d="M426,731 L439,731 L439,744 L426,744 L426,731 Z" /></clipPath>
<path d="M436.5,737 C436.5,734.515625 434.484375,732.5 432,732.5 C429.515625,732.5 427.5,734.515625 427.5,737 C427.5,739.484375 429.515625,741.5 432,741.5 C434.484375,741.5 436.5,739.484375 436.5,737 Z M436.5,737" style="fill:rgb(210,230,255);stroke:none" clip-path="url(#clip169)" />
<clipPath id="clip170"><path d="M426,731 L439,731 L439,744 L426,744 L426,731 Z" /></clipPath>
<path d="M436.5,737 C436.5,734.515625 434.484375,732.5 432,732.5 C429.515625,732.5 427.5,734.515625 427.5,737 C427.5,739.484375 429.515625,741.5 432,741.5 C434.484375,741.5 436.5,739.484375 436.5,737 Z M436.5,737" style="fill:none;stroke:rgb(180,200,240)" clip-path="url(#clip170)" />
<clipPath id="clip171"><path d="M426,731 L439,731 L439,744 L426,744 L426,731 Z" /></clipPath>
<path d="M430,737 L434,737" style="fill:none;stroke:rgb(150,160,200)" clip-path="url(#clip171)" />
<clipPath id="clip172"><path d="M445,724 L669,724 L669,751 L445,751 L445,724 Z" /></clipPath>
<path d="M447,749 L666,749" style="fill:none;stroke:rgb(128,128,128)" clip-path="url(#clip172)" />
<text x="452" y="737" style="font:10px Dialog">返回调用当前正在执行函数的函数名</text>
<clipPath id="clip173"><path d="M167,759 L695,759 L695,994 L167,994 L167,759 Z" /></clipPath>
<path d="M252,876 L265,876" style="fill:none;stroke:rgb(128,128,128)" clip-path="url(#clip173)" />
<clipPath id="clip174"><path d="M167,759 L695,759 L695,994 L167,994 L167,759 Z" /></clipPath>
<path d="M265,876 L265,810 L274,810" style="fill:none;stroke:rgb(128,128,128)" clip-path="url(#clip174)" />
<clipPath id="clip175"><path d="M167,759 L695,759 L695,994 L167,994 L167,759 Z" /></clipPath>
<path d="M265,876 L265,927 L274,927" style="fill:none;stroke:rgb(128,128,128)" clip-path="url(#clip175)" />
<clipPath id="clip176"><path d="M167,855 L255,855 L255,898 L167,898 L167,855 Z" /></clipPath>
<path d="M169,857 L252,857 L252,895 L169,895 Z M169,857" style="fill:rgb(158,176,206);stroke:none" clip-path="url(#clip176)" />
<clipPath id="clip177"><path d="M167,855 L255,855 L255,898 L167,898 L167,855 Z" /></clipPath>
<path d="M169,857 L252,857 L252,895 L169,895 Z M169,857" style="fill:none;stroke:rgb(128,128,128)" clip-path="url(#clip177)" />
<text x="176" y="876" style="font:13px Dialog">函数参数</text>
<clipPath id="clip178"><path d="M253,870 L266,870 L266,883 L253,883 L253,870 Z" /></clipPath>
<path d="M263.5,876 C263.5,873.515625 261.484375,871.5 259,871.5 C256.515625,871.5 254.5,873.515625 254.5,876 C254.5,878.484375 256.515625,880.5 259,880.5 C261.484375,880.5 263.5,878.484375 263.5,876 Z M263.5,876" style="fill:rgb(210,230,255);stroke:none" clip-path="url(#clip178)" />
<clipPath id="clip179"><path d="M253,870 L266,870 L266,883 L253,883 L253,870 Z" /></clipPath>
<path d="M263.5,876 C263.5,873.515625 261.484375,871.5 259,871.5 C256.515625,871.5 254.5,873.515625 254.5,876 C254.5,878.484375 256.515625,880.5 259,880.5 C261.484375,880.5 263.5,878.484375 263.5,876 Z M263.5,876" style="fill:none;stroke:rgb(180,200,240)" clip-path="url(#clip179)" />
<clipPath id="clip180"><path d="M253,870 L266,870 L266,883 L253,883 L253,870 Z" /></clipPath>
<path d="M257,876 L261,876" style="fill:none;stroke:rgb(150,160,200)" clip-path="url(#clip180)" />
<clipPath id="clip181"><path d="M272,759 L627,759 L627,838 L272,838 L272,759 Z" /></clipPath>
<path d="M337,810 L350,810" style="fill:none;stroke:rgb(128,128,128)" clip-path="url(#clip181)" />
<clipPath id="clip182"><path d="M272,759 L627,759 L627,838 L272,838 L272,759 Z" /></clipPath>
<path d="M350,810 L350,797 L359,797" style="fill:none;stroke:rgb(128,128,128)" clip-path="url(#clip182)" />
<clipPath id="clip183"><path d="M272,759 L627,759 L627,838 L272,838 L272,759 Z" /></clipPath>
<path d="M350,810 L350,836 L359,836" style="fill:none;stroke:rgb(128,128,128)" clip-path="url(#clip183)" />
<clipPath id="clip184"><path d="M272,785 L340,785 L340,812 L272,812 L272,785 Z" /></clipPath>
<path d="M274,810 L337,810" style="fill:none;stroke:rgb(128,128,128)" clip-path="url(#clip184)" />
<text x="279" y="798" style="font:10px Dialog">参数类型</text>
<clipPath id="clip185"><path d="M338,792 L351,792 L351,805 L338,805 L338,792 Z" /></clipPath>
<path d="M348.5,798 C348.5,795.515625 346.484375,793.5 344,793.5 C341.515625,793.5 339.5,795.515625 339.5,798 C339.5,800.484375 341.515625,802.5 344,802.5 C346.484375,802.5 348.5,800.484375 348.5,798 Z M348.5,798" style="fill:rgb(210,230,255);stroke:none" clip-path="url(#clip185)" />
<clipPath id="clip186"><path d="M338,792 L351,792 L351,805 L338,805 L338,792 Z" /></clipPath>
<path d="M348.5,798 C348.5,795.515625 346.484375,793.5 344,793.5 C341.515625,793.5 339.5,795.515625 339.5,798 C339.5,800.484375 341.515625,802.5 344,802.5 C346.484375,802.5 348.5,800.484375 348.5,798 Z M348.5,798" style="fill:none;stroke:rgb(180,200,240)" clip-path="url(#clip186)" />
<clipPath id="clip187"><path d="M338,792 L351,792 L351,805 L338,805 L338,792 Z" /></clipPath>
<path d="M342,798 L346,798" style="fill:none;stroke:rgb(150,160,200)" clip-path="url(#clip187)" />
<clipPath id="clip188"><path d="M357,759 L601,759 L601,812 L357,812 L357,759 Z" /></clipPath>
<path d="M396,797 L409,797" style="fill:none;stroke:rgb(128,128,128)" clip-path="url(#clip188)" />
<clipPath id="clip189"><path d="M357,759 L601,759 L601,812 L357,812 L357,759 Z" /></clipPath>
<path d="M409,797 L409,772.140625 L417,772.140625" style="fill:none;stroke:rgb(128,128,128)" clip-path="url(#clip189)" />
<clipPath id="clip190"><path d="M357,759 L601,759 L601,812 L357,812 L357,759 Z" /></clipPath>
<path d="M409,797 L409,798.0429688 L417,798.0429688" style="fill:none;stroke:rgb(128,128,128)" clip-path="url(#clip190)" />
<clipPath id="clip191"><path d="M357,772 L399,772 L399,799 L357,799 L357,772 Z" /></clipPath>
<path d="M359,797 L396,797" style="fill:none;stroke:rgb(128,128,128)" clip-path="url(#clip191)" />
<text x="364" y="785" style="font:10px Dialog">形参</text>
<clipPath id="clip192"><path d="M397,779 L410,779 L410,792 L397,792 L397,779 Z" /></clipPath>
<path d="M407.5,785 C407.5,782.515625 405.484375,780.5 403,780.5 C400.515625,780.5 398.5,782.515625 398.5,785 C398.5,787.484375 400.515625,789.5 403,789.5 C405.484375,789.5 407.5,787.484375 407.5,785 Z M407.5,785" style="fill:rgb(210,230,255);stroke:none" clip-path="url(#clip192)" />
<clipPath id="clip193"><path d="M397,779 L410,779 L410,792 L397,792 L397,779 Z" /></clipPath>
<path d="M407.5,785 C407.5,782.515625 405.484375,780.5 403,780.5 C400.515625,780.5 398.5,782.515625 398.5,785 C398.5,787.484375 400.515625,789.5 403,789.5 C405.484375,789.5 407.5,787.484375 407.5,785 Z M407.5,785" style="fill:none;stroke:rgb(180,200,240)" clip-path="url(#clip193)" />
<clipPath id="clip194"><path d="M397,779 L410,779 L410,792 L397,792 L397,779 Z" /></clipPath>
<path d="M401,785 L405,785" style="fill:none;stroke:rgb(150,160,200)" clip-path="url(#clip194)" />
<text x="423" y="772" style="font:10px Dialog">定义函数时使用的参数</text>
<text x="423" y="798" style="font:10px Dialog">接受调用该函数是传递的参数</text>
<clipPath id="clip195"><path d="M357,811 L627,811 L627,838 L357,838 L357,811 Z" /></clipPath>
<path d="M396,836 L409,836" style="fill:none;stroke:rgb(128,128,128)" clip-path="url(#clip195)" />
<clipPath id="clip196"><path d="M357,811 L627,811 L627,838 L357,838 L357,811 Z" /></clipPath>
<path d="M409,836 C410.7773438,827.9882813 413.4453125,823.9804688 417,823.9804688" style="fill:none;stroke:rgb(128,128,128)" clip-path="url(#clip196)" />
<clipPath id="clip197"><path d="M357,811 L399,811 L399,838 L357,838 L357,811 Z" /></clipPath>
<path d="M359,836 L396,836" style="fill:none;stroke:rgb(128,128,128)" clip-path="url(#clip197)" />
<text x="364" y="824" style="font:10px Dialog">实参</text>
<clipPath id="clip198"><path d="M397,818 L410,818 L410,831 L397,831 L397,818 Z" /></clipPath>
<path d="M407.5,824 C407.5,821.515625 405.484375,819.5 403,819.5 C400.515625,819.5 398.5,821.515625 398.5,824 C398.5,826.484375 400.515625,828.5 403,828.5 C405.484375,828.5 407.5,826.484375 407.5,824 Z M407.5,824" style="fill:rgb(210,230,255);stroke:none" clip-path="url(#clip198)" />
<clipPath id="clip199"><path d="M397,818 L410,818 L410,831 L397,831 L397,818 Z" /></clipPath>
<path d="M407.5,824 C407.5,821.515625 405.484375,819.5 403,819.5 C400.515625,819.5 398.5,821.515625 398.5,824 C398.5,826.484375 400.515625,828.5 403,828.5 C405.484375,828.5 407.5,826.484375 407.5,824 Z M407.5,824" style="fill:none;stroke:rgb(180,200,240)" clip-path="url(#clip199)" />
<clipPath id="clip200"><path d="M397,818 L410,818 L410,831 L397,831 L397,818 Z" /></clipPath>
<path d="M401,824 L405,824" style="fill:none;stroke:rgb(150,160,200)" clip-path="url(#clip200)" />
<text x="423" y="824" style="font:10px Dialog">调用函数时传递给函数实际的参数</text>
<clipPath id="clip201"><path d="M272,837 L695,837 L695,994 L272,994 L272,837 Z" /></clipPath>
<path d="M311,927 L324,927" style="fill:none;stroke:rgb(128,128,128)" clip-path="url(#clip201)" />
<clipPath id="clip202"><path d="M272,837 L695,837 L695,994 L272,994 L272,837 Z" /></clipPath>
<path d="M324,927 L324,863.203125 L332,863.203125" style="fill:none;stroke:rgb(128,128,128)" clip-path="url(#clip202)" />
<clipPath id="clip203"><path d="M272,837 L695,837 L695,994 L272,994 L272,837 Z" /></clipPath>
<path d="M324,927 L324,902.109375 L332,902.109375" style="fill:none;stroke:rgb(128,128,128)" clip-path="url(#clip203)" />
<clipPath id="clip204"><path d="M272,837 L695,837 L695,994 L272,994 L272,837 Z" /></clipPath>
<path d="M324,927 L324,927.9804688 L332,927.9804688" style="fill:none;stroke:rgb(128,128,128)" clip-path="url(#clip204)" />
<clipPath id="clip205"><path d="M272,837 L695,837 L695,994 L272,994 L272,837 Z" /></clipPath>
<path d="M324,927 L324,967.203125 L332,967.203125" style="fill:none;stroke:rgb(128,128,128)" clip-path="url(#clip205)" />
<clipPath id="clip206"><path d="M272,902 L314,902 L314,929 L272,929 L272,902 Z" /></clipPath>
<path d="M274,927 L311,927" style="fill:none;stroke:rgb(128,128,128)" clip-path="url(#clip206)" />
<text x="279" y="915" style="font:10px Dialog">特性</text>
<clipPath id="clip207"><path d="M312,909 L325,909 L325,922 L312,922 L312,909 Z" /></clipPath>
<path d="M322.5,915 C322.5,912.515625 320.484375,910.5 318,910.5 C315.515625,910.5 313.5,912.515625 313.5,915 C313.5,917.484375 315.515625,919.5 318,919.5 C320.484375,919.5 322.5,917.484375 322.5,915 Z M322.5,915" style="fill:rgb(210,230,255);stroke:none" clip-path="url(#clip207)" />
<clipPath id="clip208"><path d="M312,909 L325,909 L325,922 L312,922 L312,909 Z" /></clipPath>
<path d="M322.5,915 C322.5,912.515625 320.484375,910.5 318,910.5 C315.515625,910.5 313.5,912.515625 313.5,915 C313.5,917.484375 315.515625,919.5 318,919.5 C320.484375,919.5 322.5,917.484375 322.5,915 Z M322.5,915" style="fill:none;stroke:rgb(180,200,240)" clip-path="url(#clip208)" />
<clipPath id="clip209"><path d="M312,909 L325,909 L325,922 L312,922 L312,909 Z" /></clipPath>
<path d="M316,915 L320,915" style="fill:none;stroke:rgb(150,160,200)" clip-path="url(#clip209)" />
<clipPath id="clip210"><path d="M331,837 L695,837 L695,890 L331,890 L331,837 Z" /></clipPath>
<path d="M450,863.203125 L463,863.140625" style="fill:none;stroke:rgb(128,128,128)" clip-path="url(#clip210)" />
<clipPath id="clip211"><path d="M331,837 L695,837 L695,890 L331,890 L331,837 Z" /></clipPath>
<path d="M463,863.140625 L463,862 L470,862" style="fill:none;stroke:rgb(128,128,128)" clip-path="url(#clip211)" />
<clipPath id="clip212"><path d="M331,837 L695,837 L695,890 L331,890 L331,837 Z" /></clipPath>
<path d="M463,863.140625 L463,888 L470,888" style="fill:none;stroke:rgb(128,128,128)" clip-path="url(#clip212)" />
<text x="338" y="863" style="font:10px Dialog">参数个数没有限制</text>
<clipPath id="clip213"><path d="M449,857 L462,857 L462,870 L449,870 L449,857 Z" /></clipPath>
<path d="M459.5,863 C459.5,860.515625 457.484375,858.5 455,858.5 C452.515625,858.5 450.5,860.515625 450.5,863 C450.5,865.484375 452.515625,867.5 455,867.5 C457.484375,867.5 459.5,865.484375 459.5,863 Z M459.5,863" style="fill:rgb(210,230,255);stroke:none" clip-path="url(#clip213)" />
<clipPath id="clip214"><path d="M449,857 L462,857 L462,870 L449,870 L449,857 Z" /></clipPath>
<path d="M459.5,863 C459.5,860.515625 457.484375,858.5 455,858.5 C452.515625,858.5 450.5,860.515625 450.5,863 C450.5,865.484375 452.515625,867.5 455,867.5 C457.484375,867.5 459.5,865.484375 459.5,863 Z M459.5,863" style="fill:none;stroke:rgb(180,200,240)" clip-path="url(#clip214)" />
<clipPath id="clip215"><path d="M449,857 L462,857 L462,870 L449,870 L449,857 Z" /></clipPath>
<path d="M453,863 L457,863" style="fill:none;stroke:rgb(150,160,200)" clip-path="url(#clip215)" />
<clipPath id="clip216"><path d="M468,837 L695,837 L695,864 L468,864 L468,837 Z" /></clipPath>
<path d="M540,862 L553,862" style="fill:none;stroke:rgb(128,128,128)" clip-path="url(#clip216)" />
<clipPath id="clip217"><path d="M468,837 L695,837 L695,864 L468,864 L468,837 Z" /></clipPath>
<path d="M553,862 C555,862 558,862 562,862" style="fill:none;stroke:rgb(128,128,128)" clip-path="url(#clip217)" />
<clipPath id="clip218"><path d="M468,837 L543,837 L543,864 L468,864 L468,837 Z" /></clipPath>
<path d="M470,862 L540,862" style="fill:none;stroke:rgb(128,128,128)" clip-path="url(#clip218)" />
<text x="475" y="850" style="font:10px Dialog">实参&lt;形参</text>
<clipPath id="clip219"><path d="M541,844 L554,844 L554,857 L541,857 L541,844 Z" /></clipPath>
<path d="M551.5,850 C551.5,847.515625 549.484375,845.5 547,845.5 C544.515625,845.5 542.5,847.515625 542.5,850 C542.5,852.484375 544.515625,854.5 547,854.5 C549.484375,854.5 551.5,852.484375 551.5,850 Z M551.5,850" style="fill:rgb(210,230,255);stroke:none" clip-path="url(#clip219)" />
<clipPath id="clip220"><path d="M541,844 L554,844 L554,857 L541,857 L541,844 Z" /></clipPath>
<path d="M551.5,850 C551.5,847.515625 549.484375,845.5 547,845.5 C544.515625,845.5 542.5,847.515625 542.5,850 C542.5,852.484375 544.515625,854.5 547,854.5 C549.484375,854.5 551.5,852.484375 551.5,850 Z M551.5,850" style="fill:none;stroke:rgb(180,200,240)" clip-path="url(#clip220)" />
<clipPath id="clip221"><path d="M541,844 L554,844 L554,857 L541,857 L541,844 Z" /></clipPath>
<path d="M545,850 L549,850" style="fill:none;stroke:rgb(150,160,200)" clip-path="url(#clip221)" />
<clipPath id="clip222"><path d="M560,837 L695,837 L695,864 L560,864 L560,837 Z" /></clipPath>
<path d="M562,862 L692,862" style="fill:none;stroke:rgb(128,128,128)" clip-path="url(#clip222)" />
<text x="567" y="850" style="font:10px Dialog">多余形参 = undfined</text>
<clipPath id="clip223"><path d="M468,863 L667,863 L667,890 L468,890 L468,863 Z" /></clipPath>
<path d="M540,888 L553,888" style="fill:none;stroke:rgb(128,128,128)" clip-path="url(#clip223)" />
<clipPath id="clip224"><path d="M468,863 L667,863 L667,890 L468,890 L468,863 Z" /></clipPath>
<path d="M553,888 C555,888 558,888 562,888" style="fill:none;stroke:rgb(128,128,128)" clip-path="url(#clip224)" />
<clipPath id="clip225"><path d="M468,863 L543,863 L543,890 L468,890 L468,863 Z" /></clipPath>
<path d="M470,888 L540,888" style="fill:none;stroke:rgb(128,128,128)" clip-path="url(#clip225)" />
<text x="475" y="876" style="font:10px Dialog">实参&gt;形参</text>
<clipPath id="clip226"><path d="M541,870 L554,870 L554,883 L541,883 L541,870 Z" /></clipPath>
<path d="M551.5,876 C551.5,873.515625 549.484375,871.5 547,871.5 C544.515625,871.5 542.5,873.515625 542.5,876 C542.5,878.484375 544.515625,880.5 547,880.5 C549.484375,880.5 551.5,878.484375 551.5,876 Z M551.5,876" style="fill:rgb(210,230,255);stroke:none" clip-path="url(#clip226)" />
<clipPath id="clip227"><path d="M541,870 L554,870 L554,883 L541,883 L541,870 Z" /></clipPath>
<path d="M551.5,876 C551.5,873.515625 549.484375,871.5 547,871.5 C544.515625,871.5 542.5,873.515625 542.5,876 C542.5,878.484375 544.515625,880.5 547,880.5 C549.484375,880.5 551.5,878.484375 551.5,876 Z M551.5,876" style="fill:none;stroke:rgb(180,200,240)" clip-path="url(#clip227)" />
<clipPath id="clip228"><path d="M541,870 L554,870 L554,883 L541,883 L541,870 Z" /></clipPath>
<path d="M545,876 L549,876" style="fill:none;stroke:rgb(150,160,200)" clip-path="url(#clip228)" />
<clipPath id="clip229"><path d="M560,863 L667,863 L667,890 L560,890 L560,863 Z" /></clipPath>
<path d="M562,888 L664,888" style="fill:none;stroke:rgb(128,128,128)" clip-path="url(#clip229)" />
<text x="567" y="876" style="font:10px Dialog">多余实参被忽略</text>
<text x="338" y="902" style="font:10px Dialog">参数的数据类型没有限制</text>
<text x="338" y="928" style="font:10px Dialog">通过arguments对象访问参数数组</text>
<clipPath id="clip230"><path d="M331,941 L595,941 L595,994 L331,994 L331,941 Z" /></clipPath>
<path d="M450,967.203125 L463,967.140625" style="fill:none;stroke:rgb(128,128,128)" clip-path="url(#clip230)" />
<clipPath id="clip231"><path d="M331,941 L595,941 L595,994 L331,994 L331,941 Z" /></clipPath>
<path d="M463,967.140625 L463,966 L470,966" style="fill:none;stroke:rgb(128,128,128)" clip-path="url(#clip231)" />
<clipPath id="clip232"><path d="M331,941 L595,941 L595,994 L331,994 L331,941 Z" /></clipPath>
<path d="M463,967.140625 L463,992 L470,992" style="fill:none;stroke:rgb(128,128,128)" clip-path="url(#clip232)" />
<text x="338" y="967" style="font:10px Dialog">参数始终按值传递</text>
<clipPath id="clip233"><path d="M449,961 L462,961 L462,974 L449,974 L449,961 Z" /></clipPath>
<path d="M459.5,967 C459.5,964.515625 457.484375,962.5 455,962.5 C452.515625,962.5 450.5,964.515625 450.5,967 C450.5,969.484375 452.515625,971.5 455,971.5 C457.484375,971.5 459.5,969.484375 459.5,967 Z M459.5,967" style="fill:rgb(210,230,255);stroke:none" clip-path="url(#clip233)" />
<clipPath id="clip234"><path d="M449,961 L462,961 L462,974 L449,974 L449,961 Z" /></clipPath>
<path d="M459.5,967 C459.5,964.515625 457.484375,962.5 455,962.5 C452.515625,962.5 450.5,964.515625 450.5,967 C450.5,969.484375 452.515625,971.5 455,971.5 C457.484375,971.5 459.5,969.484375 459.5,967 Z M459.5,967" style="fill:none;stroke:rgb(180,200,240)" clip-path="url(#clip234)" />
<clipPath id="clip235"><path d="M449,961 L462,961 L462,974 L449,974 L449,961 Z" /></clipPath>
<path d="M453,967 L457,967" style="fill:none;stroke:rgb(150,160,200)" clip-path="url(#clip235)" />
<clipPath id="clip236"><path d="M468,941 L595,941 L595,968 L468,968 L468,941 Z" /></clipPath>
<path d="M533,966 L546,966" style="fill:none;stroke:rgb(128,128,128)" clip-path="url(#clip236)" />
<clipPath id="clip237"><path d="M468,941 L595,941 L595,968 L468,968 L468,941 Z" /></clipPath>
<path d="M546,966 C548,966 551,966 555,966" style="fill:none;stroke:rgb(128,128,128)" clip-path="url(#clip237)" />
<clipPath id="clip238"><path d="M468,941 L536,941 L536,968 L468,968 L468,941 Z" /></clipPath>
<path d="M470,966 L533,966" style="fill:none;stroke:rgb(128,128,128)" clip-path="url(#clip238)" />
<text x="475" y="954" style="font:10px Dialog">基本类型</text>
<clipPath id="clip239"><path d="M534,948 L547,948 L547,961 L534,961 L534,948 Z" /></clipPath>
<path d="M544.5,954 C544.5,951.515625 542.484375,949.5 540,949.5 C537.515625,949.5 535.5,951.515625 535.5,954 C535.5,956.484375 537.515625,958.5 540,958.5 C542.484375,958.5 544.5,956.484375 544.5,954 Z M544.5,954" style="fill:rgb(210,230,255);stroke:none" clip-path="url(#clip239)" />
<clipPath id="clip240"><path d="M534,948 L547,948 L547,961 L534,961 L534,948 Z" /></clipPath>
<path d="M544.5,954 C544.5,951.515625 542.484375,949.5 540,949.5 C537.515625,949.5 535.5,951.515625 535.5,954 C535.5,956.484375 537.515625,958.5 540,958.5 C542.484375,958.5 544.5,956.484375 544.5,954 Z M544.5,954" style="fill:none;stroke:rgb(180,200,240)" clip-path="url(#clip240)" />
<clipPath id="clip241"><path d="M534,948 L547,948 L547,961 L534,961 L534,948 Z" /></clipPath>
<path d="M538,954 L542,954" style="fill:none;stroke:rgb(150,160,200)" clip-path="url(#clip241)" />
<clipPath id="clip242"><path d="M553,941 L595,941 L595,968 L553,968 L553,941 Z" /></clipPath>
<path d="M555,966 L592,966" style="fill:none;stroke:rgb(128,128,128)" clip-path="url(#clip242)" />
<text x="560" y="954" style="font:10px Dialog">传值</text>
<clipPath id="clip243"><path d="M468,967 L595,967 L595,994 L468,994 L468,967 Z" /></clipPath>
<path d="M533,992 L546,992" style="fill:none;stroke:rgb(128,128,128)" clip-path="url(#clip243)" />
<clipPath id="clip244"><path d="M468,967 L595,967 L595,994 L468,994 L468,967 Z" /></clipPath>
<path d="M546,992 C548,992 551,992 555,992" style="fill:none;stroke:rgb(128,128,128)" clip-path="url(#clip244)" />
<clipPath id="clip245"><path d="M468,967 L536,967 L536,994 L468,994 L468,967 Z" /></clipPath>
<path d="M470,992 L533,992" style="fill:none;stroke:rgb(128,128,128)" clip-path="url(#clip245)" />
<text x="475" y="980" style="font:10px Dialog">引用类型</text>
<clipPath id="clip246"><path d="M534,974 L547,974 L547,987 L534,987 L534,974 Z" /></clipPath>
<path d="M544.5,980 C544.5,977.515625 542.484375,975.5 540,975.5 C537.515625,975.5 535.5,977.515625 535.5,980 C535.5,982.484375 537.515625,984.5 540,984.5 C542.484375,984.5 544.5,982.484375 544.5,980 Z M544.5,980" style="fill:rgb(210,230,255);stroke:none" clip-path="url(#clip246)" />
<clipPath id="clip247"><path d="M534,974 L547,974 L547,987 L534,987 L534,974 Z" /></clipPath>
<path d="M544.5,980 C544.5,977.515625 542.484375,975.5 540,975.5 C537.515625,975.5 535.5,977.515625 535.5,980 C535.5,982.484375 537.515625,984.5 540,984.5 C542.484375,984.5 544.5,982.484375 544.5,980 Z M544.5,980" style="fill:none;stroke:rgb(180,200,240)" clip-path="url(#clip247)" />
<clipPath id="clip248"><path d="M534,974 L547,974 L547,987 L534,987 L534,974 Z" /></clipPath>
<path d="M538,980 L542,980" style="fill:none;stroke:rgb(150,160,200)" clip-path="url(#clip248)" />
<clipPath id="clip249"><path d="M553,967 L595,967 L595,994 L553,994 L553,967 Z" /></clipPath>
<path d="M555,992 L592,992" style="fill:none;stroke:rgb(128,128,128)" clip-path="url(#clip249)" />
<text x="560" y="980" style="font:10px Dialog">传址</text>
<clipPath id="clip250"><path d="M167,1002 L883,1002 L883,1265 L167,1265 L167,1002 Z" /></clipPath>
<path d="M252,1133 L265,1133" style="fill:none;stroke:rgb(128,128,128)" clip-path="url(#clip250)" />
<clipPath id="clip251"><path d="M167,1002 L883,1002 L883,1265 L167,1265 L167,1002 Z" /></clipPath>
<path d="M265,1133 L265,1046 L273,1046" style="fill:none;stroke:rgb(128,128,128)" clip-path="url(#clip251)" />
<clipPath id="clip252"><path d="M167,1002 L883,1002 L883,1265 L167,1265 L167,1002 Z" /></clipPath>
<path d="M265,1133 L265,1103 L273,1103" style="fill:none;stroke:rgb(128,128,128)" clip-path="url(#clip252)" />
<clipPath id="clip253"><path d="M167,1002 L883,1002 L883,1265 L167,1265 L167,1002 Z" /></clipPath>
<path d="M265,1133 L265,1129 L273,1129" style="fill:none;stroke:rgb(128,128,128)" clip-path="url(#clip253)" />
<clipPath id="clip254"><path d="M167,1002 L883,1002 L883,1265 L167,1265 L167,1002 Z" /></clipPath>
<path d="M265,1133 L265,1164 L273,1164" style="fill:none;stroke:rgb(128,128,128)" clip-path="url(#clip254)" />
<clipPath id="clip255"><path d="M167,1002 L883,1002 L883,1265 L167,1265 L167,1002 Z" /></clipPath>
<path d="M265,1133 L265,1223 L274,1223" style="fill:none;stroke:rgb(128,128,128)" clip-path="url(#clip255)" />
<clipPath id="clip256"><path d="M167,1002 L883,1002 L883,1265 L167,1265 L167,1002 Z" /></clipPath>
<path d="M265,1133 L265,1262 L274,1262" style="fill:none;stroke:rgb(128,128,128)" clip-path="url(#clip256)" />
<clipPath id="clip257"><path d="M167,1112 L255,1112 L255,1155 L167,1155 L167,1112 Z" /></clipPath>
<path d="M169,1114 L252,1114 L252,1152 L169,1152 Z M169,1114" style="fill:rgb(132,132,255);stroke:none" clip-path="url(#clip257)" />
<clipPath id="clip258"><path d="M167,1112 L255,1112 L255,1155 L167,1155 L167,1112 Z" /></clipPath>
<path d="M169,1114 L252,1114 L252,1152 L169,1152 Z M169,1114" style="fill:none;stroke:rgb(128,128,128)" clip-path="url(#clip258)" />
<text x="176" y="1133" style="font:13px Dialog">系统函数</text>
<clipPath id="clip259"><path d="M253,1127 L266,1127 L266,1140 L253,1140 L253,1127 Z" /></clipPath>
<path d="M263.5,1133 C263.5,1130.515625 261.484375,1128.5 259,1128.5 C256.515625,1128.5 254.5,1130.515625 254.5,1133 C254.5,1135.484375 256.515625,1137.5 259,1137.5 C261.484375,1137.5 263.5,1135.484375 263.5,1133 Z M263.5,1133" style="fill:rgb(210,230,255);stroke:none" clip-path="url(#clip259)" />
<clipPath id="clip260"><path d="M253,1127 L266,1127 L266,1140 L253,1140 L253,1127 Z" /></clipPath>
<path d="M263.5,1133 C263.5,1130.515625 261.484375,1128.5 259,1128.5 C256.515625,1128.5 254.5,1130.515625 254.5,1133 C254.5,1135.484375 256.515625,1137.5 259,1137.5 C261.484375,1137.5 263.5,1135.484375 263.5,1133 Z M263.5,1133" style="fill:none;stroke:rgb(180,200,240)" clip-path="url(#clip260)" />
<clipPath id="clip261"><path d="M253,1127 L266,1127 L266,1140 L253,1140 L253,1127 Z" /></clipPath>
<path d="M257,1133 L261,1133" style="fill:none;stroke:rgb(150,160,200)" clip-path="url(#clip261)" />
<clipPath id="clip262"><path d="M272,1002 L734,1002 L734,1091 L272,1091 L272,1002 Z" /></clipPath>
<path d="M336,1046 L349,1046" style="fill:none;stroke:rgb(128,128,128)" clip-path="url(#clip262)" />
<clipPath id="clip263"><path d="M272,1002 L734,1002 L734,1091 L272,1091 L272,1002 Z" /></clipPath>
<path d="M349,1046 L349,1045 L356,1045" style="fill:none;stroke:rgb(128,128,128)" clip-path="url(#clip263)" />
<clipPath id="clip264"><path d="M272,1002 L734,1002 L734,1091 L272,1091 L272,1002 Z" /></clipPath>
<path d="M349,1046 L349,1089 L356,1089" style="fill:none;stroke:rgb(128,128,128)" clip-path="url(#clip264)" />
<text x="279" y="1046" style="font:10px Dialog">escape()</text>
<clipPath id="clip265"><path d="M335,1040 L348,1040 L348,1053 L335,1053 L335,1040 Z" /></clipPath>
<path d="M345.5,1046 C345.5,1043.515625 343.484375,1041.5 341,1041.5 C338.515625,1041.5 336.5,1043.515625 336.5,1046 C336.5,1048.484375 338.515625,1050.5 341,1050.5 C343.484375,1050.5 345.5,1048.484375 345.5,1046 Z M345.5,1046" style="fill:rgb(210,230,255);stroke:none" clip-path="url(#clip265)" />
<clipPath id="clip266"><path d="M335,1040 L348,1040 L348,1053 L335,1053 L335,1040 Z" /></clipPath>
<path d="M345.5,1046 C345.5,1043.515625 343.484375,1041.5 341,1041.5 C338.515625,1041.5 336.5,1043.515625 336.5,1046 C336.5,1048.484375 338.515625,1050.5 341,1050.5 C343.484375,1050.5 345.5,1048.484375 345.5,1046 Z M345.5,1046" style="fill:none;stroke:rgb(180,200,240)" clip-path="url(#clip266)" />
<clipPath id="clip267"><path d="M335,1040 L348,1040 L348,1053 L335,1053 L335,1040 Z" /></clipPath>
<path d="M339,1046 L343,1046" style="fill:none;stroke:rgb(150,160,200)" clip-path="url(#clip267)" />
<clipPath id="clip268"><path d="M354,1002 L723,1002 L723,1047 L354,1047 L354,1002 Z" /></clipPath>
<path d="M356,1045 L720,1045" style="fill:none;stroke:rgb(128,128,128)" clip-path="url(#clip268)" />
<text x="361" y="1015" style="font:10px Dialog">escape（）函数的作用是将字符串中的非文字、数字的字符，</text>
<text x="361" y="1033" style="font:10px Dialog">如#，$，%，^，&amp;，空格，括号等，转换成相应的ASCII值。</text>
<clipPath id="clip269"><path d="M354,1046 L734,1046 L734,1091 L354,1091 L354,1046 Z" /></clipPath>
<path d="M356,1089 L731,1089" style="fill:none;stroke:rgb(128,128,128)" clip-path="url(#clip269)" />
<text x="361" y="1059" style="font:10px Dialog">主要：用在字符串的处理上，用于保证这些特殊字符不会干扰到</text>
<text x="361" y="1077" style="font:10px Dialog">字符串的处理。</text>
<clipPath id="clip270"><path d="M272,1090 L736,1090 L736,1117 L272,1117 L272,1090 Z" /></clipPath>
<path d="M352,1103 L365,1103" style="fill:none;stroke:rgb(128,128,128)" clip-path="url(#clip270)" />
<clipPath id="clip271"><path d="M272,1090 L736,1090 L736,1117 L272,1117 L272,1090 Z" /></clipPath>
<path d="M365,1103 L365,1115 L372,1115" style="fill:none;stroke:rgb(128,128,128)" clip-path="url(#clip271)" />
<text x="279" y="1103" style="font:10px Dialog">unescape()</text>
<clipPath id="clip272"><path d="M351,1097 L364,1097 L364,1110 L351,1110 L351,1097 Z" /></clipPath>
<path d="M361.5,1103 C361.5,1100.515625 359.484375,1098.5 357,1098.5 C354.515625,1098.5 352.5,1100.515625 352.5,1103 C352.5,1105.484375 354.515625,1107.5 357,1107.5 C359.484375,1107.5 361.5,1105.484375 361.5,1103 Z M361.5,1103" style="fill:rgb(210,230,255);stroke:none" clip-path="url(#clip272)" />
<clipPath id="clip273"><path d="M351,1097 L364,1097 L364,1110 L351,1110 L351,1097 Z" /></clipPath>
<path d="M361.5,1103 C361.5,1100.515625 359.484375,1098.5 357,1098.5 C354.515625,1098.5 352.5,1100.515625 352.5,1103 C352.5,1105.484375 354.515625,1107.5 357,1107.5 C359.484375,1107.5 361.5,1105.484375 361.5,1103 Z M361.5,1103" style="fill:none;stroke:rgb(180,200,240)" clip-path="url(#clip273)" />
<clipPath id="clip274"><path d="M351,1097 L364,1097 L364,1110 L351,1110 L351,1097 Z" /></clipPath>
<path d="M355,1103 L359,1103" style="fill:none;stroke:rgb(150,160,200)" clip-path="url(#clip274)" />
<clipPath id="clip275"><path d="M370,1090 L736,1090 L736,1117 L370,1117 L370,1090 Z" /></clipPath>
<path d="M372,1115 L733,1115" style="fill:none;stroke:rgb(128,128,128)" clip-path="url(#clip275)" />
<text x="377" y="1103" style="font:10px Dialog">unescape（）函数的作用是将ASCII码的文字转换成一般文字</text>
<clipPath id="clip276"><path d="M272,1116 L817,1116 L817,1143 L272,1143 L272,1116 Z" /></clipPath>
<path d="M318,1129 L331,1129" style="fill:none;stroke:rgb(128,128,128)" clip-path="url(#clip276)" />
<clipPath id="clip277"><path d="M272,1116 L817,1116 L817,1143 L272,1143 L272,1116 Z" /></clipPath>
<path d="M331,1129 L331,1141 L338,1141" style="fill:none;stroke:rgb(128,128,128)" clip-path="url(#clip277)" />
<text x="279" y="1129" style="font:10px Dialog">eval()</text>
<clipPath id="clip278"><path d="M317,1123 L330,1123 L330,1136 L317,1136 L317,1123 Z" /></clipPath>
<path d="M327.5,1129 C327.5,1126.515625 325.484375,1124.5 323,1124.5 C320.515625,1124.5 318.5,1126.515625 318.5,1129 C318.5,1131.484375 320.515625,1133.5 323,1133.5 C325.484375,1133.5 327.5,1131.484375 327.5,1129 Z M327.5,1129" style="fill:rgb(210,230,255);stroke:none" clip-path="url(#clip278)" />
<clipPath id="clip279"><path d="M317,1123 L330,1123 L330,1136 L317,1136 L317,1123 Z" /></clipPath>
<path d="M327.5,1129 C327.5,1126.515625 325.484375,1124.5 323,1124.5 C320.515625,1124.5 318.5,1126.515625 318.5,1129 C318.5,1131.484375 320.515625,1133.5 323,1133.5 C325.484375,1133.5 327.5,1131.484375 327.5,1129 Z M327.5,1129" style="fill:none;stroke:rgb(180,200,240)" clip-path="url(#clip279)" />
<clipPath id="clip280"><path d="M317,1123 L330,1123 L330,1136 L317,1136 L317,1123 Z" /></clipPath>
<path d="M321,1129 L325,1129" style="fill:none;stroke:rgb(150,160,200)" clip-path="url(#clip280)" />
<clipPath id="clip281"><path d="M336,1116 L817,1116 L817,1143 L336,1143 L336,1116 Z" /></clipPath>
<path d="M338,1141 L814,1141" style="fill:none;stroke:rgb(128,128,128)" clip-path="url(#clip281)" />
<text x="343" y="1129" style="font:10px Dialog">eval（）函数是使用得比较多的一个函数，该函数的作用是将字符串指定为对象。</text>
<clipPath id="clip282"><path d="M272,1142 L715,1142 L715,1187 L272,1187 L272,1142 Z" /></clipPath>
<path d="M331,1164 L344,1164" style="fill:none;stroke:rgb(128,128,128)" clip-path="url(#clip282)" />
<clipPath id="clip283"><path d="M272,1142 L715,1142 L715,1187 L272,1187 L272,1142 Z" /></clipPath>
<path d="M344,1164 L344,1185 L351,1185" style="fill:none;stroke:rgb(128,128,128)" clip-path="url(#clip283)" />
<text x="279" y="1164" style="font:10px Dialog">isNaN()</text>
<clipPath id="clip284"><path d="M330,1158 L343,1158 L343,1171 L330,1171 L330,1158 Z" /></clipPath>
<path d="M340.5,1164 C340.5,1161.515625 338.484375,1159.5 336,1159.5 C333.515625,1159.5 331.5,1161.515625 331.5,1164 C331.5,1166.484375 333.515625,1168.5 336,1168.5 C338.484375,1168.5 340.5,1166.484375 340.5,1164 Z M340.5,1164" style="fill:rgb(210,230,255);stroke:none" clip-path="url(#clip284)" />
<clipPath id="clip285"><path d="M330,1158 L343,1158 L343,1171 L330,1171 L330,1158 Z" /></clipPath>
<path d="M340.5,1164 C340.5,1161.515625 338.484375,1159.5 336,1159.5 C333.515625,1159.5 331.5,1161.515625 331.5,1164 C331.5,1166.484375 333.515625,1168.5 336,1168.5 C338.484375,1168.5 340.5,1166.484375 340.5,1164 Z M340.5,1164" style="fill:none;stroke:rgb(180,200,240)" clip-path="url(#clip285)" />
<clipPath id="clip286"><path d="M330,1158 L343,1158 L343,1171 L330,1171 L330,1158 Z" /></clipPath>
<path d="M334,1164 L338,1164" style="fill:none;stroke:rgb(150,160,200)" clip-path="url(#clip286)" />
<clipPath id="clip287"><path d="M349,1142 L715,1142 L715,1187 L349,1187 L349,1142 Z" /></clipPath>
<path d="M351,1185 L712,1185" style="fill:none;stroke:rgb(128,128,128)" clip-path="url(#clip287)" />
<text x="356" y="1155" style="font:10px Dialog">在JS中，如果对非数字型变量进行数值运算，将会返回NaN，</text>
<text x="356" y="1173" style="font:10px Dialog">我们可以使用isNaN（）函数来判断变量是否为数字型变量。</text>
<clipPath id="clip288"><path d="M272,1186 L846,1186 L846,1239 L272,1239 L272,1186 Z" /></clipPath>
<path d="M344,1223 L357,1223" style="fill:none;stroke:rgb(128,128,128)" clip-path="url(#clip288)" />
<clipPath id="clip289"><path d="M272,1186 L846,1186 L846,1239 L272,1239 L272,1186 Z" /></clipPath>
<path d="M357,1223 L357,1211 L366,1211" style="fill:none;stroke:rgb(128,128,128)" clip-path="url(#clip289)" />
<clipPath id="clip290"><path d="M272,1186 L846,1186 L846,1239 L272,1239 L272,1186 Z" /></clipPath>
<path d="M357,1223 L357,1237 L366,1237" style="fill:none;stroke:rgb(128,128,128)" clip-path="url(#clip290)" />
<clipPath id="clip291"><path d="M272,1199 L347,1199 L347,1225 L272,1225 L272,1199 Z" /></clipPath>
<path d="M274,1223 L344,1223" style="fill:none;stroke:rgb(128,128,128)" clip-path="url(#clip291)" />
<text x="279" y="1212" style="font:10px Dialog">parseInt()</text>
<clipPath id="clip292"><path d="M345,1206 L358,1206 L358,1219 L345,1219 L345,1206 Z" /></clipPath>
<path d="M355.5,1212 C355.5,1209.515625 353.484375,1207.5 351,1207.5 C348.515625,1207.5 346.5,1209.515625 346.5,1212 C346.5,1214.484375 348.515625,1216.5 351,1216.5 C353.484375,1216.5 355.5,1214.484375 355.5,1212 Z M355.5,1212" style="fill:rgb(210,230,255);stroke:none" clip-path="url(#clip292)" />
<clipPath id="clip293"><path d="M345,1206 L358,1206 L358,1219 L345,1219 L345,1206 Z" /></clipPath>
<path d="M355.5,1212 C355.5,1209.515625 353.484375,1207.5 351,1207.5 C348.515625,1207.5 346.5,1209.515625 346.5,1212 C346.5,1214.484375 348.515625,1216.5 351,1216.5 C353.484375,1216.5 355.5,1214.484375 355.5,1212 Z M355.5,1212" style="fill:none;stroke:rgb(180,200,240)" clip-path="url(#clip293)" />
<clipPath id="clip294"><path d="M345,1206 L358,1206 L358,1219 L345,1219 L345,1206 Z" /></clipPath>
<path d="M349,1212 L353,1212" style="fill:none;stroke:rgb(150,160,200)" clip-path="url(#clip294)" />
<clipPath id="clip295"><path d="M364,1186 L846,1186 L846,1213 L364,1213 L364,1186 Z" /></clipPath>
<path d="M366,1211 L843,1211" style="fill:none;stroke:rgb(128,128,128)" clip-path="url(#clip295)" />
<text x="371" y="1199" style="font:10px Dialog">在JS中，可以使用该函数将二进制、八进制和十六进制的数据转换成十进制数据。</text>
<clipPath id="clip296"><path d="M364,1212 L730,1212 L730,1239 L364,1239 L364,1212 Z" /></clipPath>
<path d="M366,1237 L727,1237" style="fill:none;stroke:rgb(128,128,128)" clip-path="url(#clip296)" />
<text x="371" y="1225" style="font:10px Dialog">parseInt（数据，底数），如果底数不存在，则自动识别进制</text>
<clipPath id="clip297"><path d="M272,1238 L883,1238 L883,1265 L272,1265 L272,1238 Z" /></clipPath>
<path d="M356,1262 L369,1262" style="fill:none;stroke:rgb(128,128,128)" clip-path="url(#clip297)" />
<clipPath id="clip298"><path d="M272,1238 L883,1238 L883,1265 L272,1265 L272,1238 Z" /></clipPath>
<path d="M369,1262 C371,1262.6679688 374,1263 378,1263" style="fill:none;stroke:rgb(128,128,128)" clip-path="url(#clip298)" />
<clipPath id="clip299"><path d="M272,1238 L359,1238 L359,1264 L272,1264 L272,1238 Z" /></clipPath>
<path d="M274,1262 L356,1262" style="fill:none;stroke:rgb(128,128,128)" clip-path="url(#clip299)" />
<text x="279" y="1251" style="font:10px Dialog">parseFloat()</text>
<clipPath id="clip300"><path d="M357,1245 L370,1245 L370,1258 L357,1258 L357,1245 Z" /></clipPath>
<path d="M367.5,1251 C367.5,1248.515625 365.484375,1246.5 363,1246.5 C360.515625,1246.5 358.5,1248.515625 358.5,1251 C358.5,1253.484375 360.515625,1255.5 363,1255.5 C365.484375,1255.5 367.5,1253.484375 367.5,1251 Z M367.5,1251" style="fill:rgb(210,230,255);stroke:none" clip-path="url(#clip300)" />
<clipPath id="clip301"><path d="M357,1245 L370,1245 L370,1258 L357,1258 L357,1245 Z" /></clipPath>
<path d="M367.5,1251 C367.5,1248.515625 365.484375,1246.5 363,1246.5 C360.515625,1246.5 358.5,1248.515625 358.5,1251 C358.5,1253.484375 360.515625,1255.5 363,1255.5 C365.484375,1255.5 367.5,1253.484375 367.5,1251 Z M367.5,1251" style="fill:none;stroke:rgb(180,200,240)" clip-path="url(#clip301)" />
<clipPath id="clip302"><path d="M357,1245 L370,1245 L370,1258 L357,1258 L357,1245 Z" /></clipPath>
<path d="M361,1251 L365,1251" style="fill:none;stroke:rgb(150,160,200)" clip-path="url(#clip302)" />
<clipPath id="clip303"><path d="M376,1238 L883,1238 L883,1265 L376,1265 L376,1238 Z" /></clipPath>
<path d="M378,1263 L880,1263" style="fill:none;stroke:rgb(128,128,128)" clip-path="url(#clip303)" />
<text x="383" y="1251" style="font:10px Dialog">parseFloat（）和parseInt（）不同，该函数的作用是将字符串数据转换成浮点数据。</text>
<clipPath id="clip304"><path d="M167,1273 L547,1273 L547,1378 L167,1378 L167,1273 Z" /></clipPath>
<path d="M252,1325 L265,1325" style="fill:none;stroke:rgb(128,128,128)" clip-path="url(#clip304)" />
<clipPath id="clip305"><path d="M167,1273 L547,1273 L547,1378 L167,1378 L167,1273 Z" /></clipPath>
<path d="M265,1325 L265,1286 L273,1286" style="fill:none;stroke:rgb(128,128,128)" clip-path="url(#clip305)" />
<clipPath id="clip306"><path d="M167,1273 L547,1273 L547,1378 L167,1378 L167,1273 Z" /></clipPath>
<path d="M265,1325 L265,1312 L273,1312" style="fill:none;stroke:rgb(128,128,128)" clip-path="url(#clip306)" />
<clipPath id="clip307"><path d="M167,1273 L547,1273 L547,1378 L167,1378 L167,1273 Z" /></clipPath>
<path d="M265,1325 L265,1338 L273,1338" style="fill:none;stroke:rgb(128,128,128)" clip-path="url(#clip307)" />
<clipPath id="clip308"><path d="M167,1273 L547,1273 L547,1378 L167,1378 L167,1273 Z" /></clipPath>
<path d="M265,1325 L265,1364 L273,1364" style="fill:none;stroke:rgb(128,128,128)" clip-path="url(#clip308)" />
<clipPath id="clip309"><path d="M167,1304 L255,1304 L255,1347 L167,1347 L167,1304 Z" /></clipPath>
<path d="M169,1311 C169,1308.2382813 171.2382813,1306 174,1306 L247,1306 C249.7617188,1306 252,1308.2382813 252,1311 L252,1339 C252,1341.7617188 249.7617188,1344 247,1344 L174,1344 C171.2382813,1344 169,1341.7617188 169,1339 Z M169,1311" style="fill:rgb(158,176,206);stroke:none" clip-path="url(#clip309)" />
<clipPath id="clip310"><path d="M167,1304 L255,1304 L255,1347 L167,1347 L167,1304 Z" /></clipPath>
<path d="M169,1311 C169,1308.2382813 171.2382813,1306 174,1306 L247,1306 C249.7617188,1306 252,1308.2382813 252,1311 L252,1339 C252,1341.7617188 249.7617188,1344 247,1344 L174,1344 C171.2382813,1344 169,1341.7617188 169,1339 Z M169,1311" style="fill:none;stroke:rgb(128,128,128)" clip-path="url(#clip310)" />
<text x="176" y="1325" style="font:13px Dialog">指针标识</text>
<clipPath id="clip311"><path d="M253,1319 L266,1319 L266,1332 L253,1332 L253,1319 Z" /></clipPath>
<path d="M263.5,1325 C263.5,1322.515625 261.484375,1320.5 259,1320.5 C256.515625,1320.5 254.5,1322.515625 254.5,1325 C254.5,1327.484375 256.515625,1329.5 259,1329.5 C261.484375,1329.5 263.5,1327.484375 263.5,1325 Z M263.5,1325" style="fill:rgb(210,230,255);stroke:none" clip-path="url(#clip311)" />
<clipPath id="clip312"><path d="M253,1319 L266,1319 L266,1332 L253,1332 L253,1319 Z" /></clipPath>
<path d="M263.5,1325 C263.5,1322.515625 261.484375,1320.5 259,1320.5 C256.515625,1320.5 254.5,1322.515625 254.5,1325 C254.5,1327.484375 256.515625,1329.5 259,1329.5 C261.484375,1329.5 263.5,1327.484375 263.5,1325 Z M263.5,1325" style="fill:none;stroke:rgb(180,200,240)" clip-path="url(#clip312)" />
<clipPath id="clip313"><path d="M253,1319 L266,1319 L266,1332 L253,1332 L253,1319 Z" /></clipPath>
<path d="M257,1325 L261,1325" style="fill:none;stroke:rgb(150,160,200)" clip-path="url(#clip313)" />
<clipPath id="clip314"><path d="M272,1273 L447,1273 L447,1300 L272,1300 L272,1273 Z" /></clipPath>
<path d="M309,1286 L322,1286" style="fill:none;stroke:rgb(128,128,128)" clip-path="url(#clip314)" />
<clipPath id="clip315"><path d="M272,1273 L447,1273 L447,1300 L272,1300 L272,1273 Z" /></clipPath>
<path d="M322,1286 C323.5546875,1294 325.890625,1298 329,1298" style="fill:none;stroke:rgb(128,128,128)" clip-path="url(#clip315)" />
<text x="279" y="1286" style="font:10px Dialog">this</text>
<clipPath id="clip316"><path d="M308,1280 L321,1280 L321,1293 L308,1293 L308,1280 Z" /></clipPath>
<path d="M318.5,1286 C318.5,1283.515625 316.484375,1281.5 314,1281.5 C311.515625,1281.5 309.5,1283.515625 309.5,1286 C309.5,1288.484375 311.515625,1290.5 314,1290.5 C316.484375,1290.5 318.5,1288.484375 318.5,1286 Z M318.5,1286" style="fill:rgb(210,230,255);stroke:none" clip-path="url(#clip316)" />
<clipPath id="clip317"><path d="M308,1280 L321,1280 L321,1293 L308,1293 L308,1280 Z" /></clipPath>
<path d="M318.5,1286 C318.5,1283.515625 316.484375,1281.5 314,1281.5 C311.515625,1281.5 309.5,1283.515625 309.5,1286 C309.5,1288.484375 311.515625,1290.5 314,1290.5 C316.484375,1290.5 318.5,1288.484375 318.5,1286 Z M318.5,1286" style="fill:none;stroke:rgb(180,200,240)" clip-path="url(#clip317)" />
<clipPath id="clip318"><path d="M308,1280 L321,1280 L321,1293 L308,1293 L308,1280 Z" /></clipPath>
<path d="M312,1286 L316,1286" style="fill:none;stroke:rgb(150,160,200)" clip-path="url(#clip318)" />
<clipPath id="clip319"><path d="M327,1273 L447,1273 L447,1300 L327,1300 L327,1273 Z" /></clipPath>
<path d="M329,1298 L444,1298" style="fill:none;stroke:rgb(128,128,128)" clip-path="url(#clip319)" />
<text x="334" y="1286" style="font:10px Dialog">指向当前操作对象</text>
<clipPath id="clip320"><path d="M272,1299 L484,1299 L484,1326 L272,1326 L272,1299 Z" /></clipPath>
<path d="M320,1312 L333,1312" style="fill:none;stroke:rgb(128,128,128)" clip-path="url(#clip320)" />
<clipPath id="clip321"><path d="M272,1299 L484,1299 L484,1326 L272,1326 L272,1299 Z" /></clipPath>
<path d="M333,1312 C334.5546875,1320 336.890625,1324 340,1324" style="fill:none;stroke:rgb(128,128,128)" clip-path="url(#clip321)" />
<text x="279" y="1312" style="font:10px Dialog">callee</text>
<clipPath id="clip322"><path d="M319,1306 L332,1306 L332,1319 L319,1319 L319,1306 Z" /></clipPath>
<path d="M329.5,1312 C329.5,1309.515625 327.484375,1307.5 325,1307.5 C322.515625,1307.5 320.5,1309.515625 320.5,1312 C320.5,1314.484375 322.515625,1316.5 325,1316.5 C327.484375,1316.5 329.5,1314.484375 329.5,1312 Z M329.5,1312" style="fill:rgb(210,230,255);stroke:none" clip-path="url(#clip322)" />
<clipPath id="clip323"><path d="M319,1306 L332,1306 L332,1319 L319,1319 L319,1306 Z" /></clipPath>
<path d="M329.5,1312 C329.5,1309.515625 327.484375,1307.5 325,1307.5 C322.515625,1307.5 320.5,1309.515625 320.5,1312 C320.5,1314.484375 322.515625,1316.5 325,1316.5 C327.484375,1316.5 329.5,1314.484375 329.5,1312 Z M329.5,1312" style="fill:none;stroke:rgb(180,200,240)" clip-path="url(#clip323)" />
<clipPath id="clip324"><path d="M319,1306 L332,1306 L332,1319 L319,1319 L319,1306 Z" /></clipPath>
<path d="M323,1312 L327,1312" style="fill:none;stroke:rgb(150,160,200)" clip-path="url(#clip324)" />
<clipPath id="clip325"><path d="M338,1299 L484,1299 L484,1326 L338,1326 L338,1299 Z" /></clipPath>
<path d="M340,1324 L481,1324" style="fill:none;stroke:rgb(128,128,128)" clip-path="url(#clip325)" />
<text x="345" y="1312" style="font:10px Dialog">指向参数集合所属函数</text>
<clipPath id="clip326"><path d="M272,1325 L525,1325 L525,1352 L272,1352 L272,1325 Z" /></clipPath>
<path d="M348,1338 L361,1338" style="fill:none;stroke:rgb(128,128,128)" clip-path="url(#clip326)" />
<clipPath id="clip327"><path d="M272,1325 L525,1325 L525,1352 L272,1352 L272,1325 Z" /></clipPath>
<path d="M361,1338 C362.5546875,1346 364.890625,1350 368,1350" style="fill:none;stroke:rgb(128,128,128)" clip-path="url(#clip327)" />
<text x="279" y="1338" style="font:10px Dialog">prototype</text>
<clipPath id="clip328"><path d="M347,1332 L360,1332 L360,1345 L347,1345 L347,1332 Z" /></clipPath>
<path d="M357.5,1338 C357.5,1335.515625 355.484375,1333.5 353,1333.5 C350.515625,1333.5 348.5,1335.515625 348.5,1338 C348.5,1340.484375 350.515625,1342.5 353,1342.5 C355.484375,1342.5 357.5,1340.484375 357.5,1338 Z M357.5,1338" style="fill:rgb(210,230,255);stroke:none" clip-path="url(#clip328)" />
<clipPath id="clip329"><path d="M347,1332 L360,1332 L360,1345 L347,1345 L347,1332 Z" /></clipPath>
<path d="M357.5,1338 C357.5,1335.515625 355.484375,1333.5 353,1333.5 C350.515625,1333.5 348.5,1335.515625 348.5,1338 C348.5,1340.484375 350.515625,1342.5 353,1342.5 C355.484375,1342.5 357.5,1340.484375 357.5,1338 Z M357.5,1338" style="fill:none;stroke:rgb(180,200,240)" clip-path="url(#clip329)" />
<clipPath id="clip330"><path d="M347,1332 L360,1332 L360,1345 L347,1345 L347,1332 Z" /></clipPath>
<path d="M351,1338 L355,1338" style="fill:none;stroke:rgb(150,160,200)" clip-path="url(#clip330)" />
<clipPath id="clip331"><path d="M366,1325 L525,1325 L525,1352 L366,1352 L366,1325 Z" /></clipPath>
<path d="M368,1350 L522,1350" style="fill:none;stroke:rgb(128,128,128)" clip-path="url(#clip331)" />
<text x="373" y="1338" style="font:10px Dialog">指向函数附带的原型函数</text>
<clipPath id="clip332"><path d="M272,1351 L547,1351 L547,1378 L272,1378 L272,1351 Z" /></clipPath>
<path d="M357,1364 L370,1364" style="fill:none;stroke:rgb(128,128,128)" clip-path="url(#clip332)" />
<clipPath id="clip333"><path d="M272,1351 L547,1351 L547,1378 L272,1378 L272,1351 Z" /></clipPath>
<path d="M370,1364 C371.5546875,1372 373.890625,1376 377,1376" style="fill:none;stroke:rgb(128,128,128)" clip-path="url(#clip333)" />
<text x="279" y="1364" style="font:10px Dialog">constructor</text>
<clipPath id="clip334"><path d="M356,1358 L369,1358 L369,1371 L356,1371 L356,1358 Z" /></clipPath>
<path d="M366.5,1364 C366.5,1361.515625 364.484375,1359.5 362,1359.5 C359.515625,1359.5 357.5,1361.515625 357.5,1364 C357.5,1366.484375 359.515625,1368.5 362,1368.5 C364.484375,1368.5 366.5,1366.484375 366.5,1364 Z M366.5,1364" style="fill:rgb(210,230,255);stroke:none" clip-path="url(#clip334)" />
<clipPath id="clip335"><path d="M356,1358 L369,1358 L369,1371 L356,1371 L356,1358 Z" /></clipPath>
<path d="M366.5,1364 C366.5,1361.515625 364.484375,1359.5 362,1359.5 C359.515625,1359.5 357.5,1361.515625 357.5,1364 C357.5,1366.484375 359.515625,1368.5 362,1368.5 C364.484375,1368.5 366.5,1366.484375 366.5,1364 Z M366.5,1364" style="fill:none;stroke:rgb(180,200,240)" clip-path="url(#clip335)" />
<clipPath id="clip336"><path d="M356,1358 L369,1358 L369,1371 L356,1371 L356,1358 Z" /></clipPath>
<path d="M360,1364 L364,1364" style="fill:none;stroke:rgb(150,160,200)" clip-path="url(#clip336)" />
<clipPath id="clip337"><path d="M375,1351 L547,1351 L547,1378 L375,1378 L375,1351 Z" /></clipPath>
<path d="M377,1376 L544,1376" style="fill:none;stroke:rgb(128,128,128)" clip-path="url(#clip337)" />
<text x="382" y="1364" style="font:10px Dialog">指向创建该对象的构造函数</text>
</svg>
